<mxfile host="Electron" agent="Mozilla/5.0 (Windows NT 10.0; Win64; x64) AppleWebKit/537.36 (KHTML, like Gecko) draw.io/25.0.2 Chrome/128.0.6613.186 Electron/32.2.5 Safari/537.36" border="50" scale="3" compressed="false" locked="false" version="25.0.2">
  <diagram name="Blank" id="YmL12bMKpDGza6XwsDPr">
    <mxGraphModel dx="1880" dy="466" grid="0" gridSize="10" guides="1" tooltips="1" connect="1" arrows="1" fold="1" page="0" pageScale="1" pageWidth="827" pageHeight="1169" background="none" math="1" shadow="0">
      <root>
        <mxCell id="X5NqExCQtvZxIxQ7pmgY-0" />
        <mxCell id="1" parent="X5NqExCQtvZxIxQ7pmgY-0" />
        <mxCell id="WB3ADnF7xE-O0mQ4oyNu-1" value="" style="shape=image;verticalLabelPosition=bottom;labelBackgroundColor=default;verticalAlign=top;aspect=fixed;imageAspect=0;image=data:image/png,iVBORw0KGgoAAAANSUhEUgAABPEAAAKmCAYAAAAsBgvtAAAAAXNSR0IArs4c6QAAAARnQU1BAACxjwv8YQUAAAAJcEhZcwAAEnQAABJ0Ad5mH3gAAPPjSURBVHhe7P1/cBTnge//fnLsA44sjxQssLw4X0mWIF8MiaJYmwCJ8foo8poSN/niH5BrCth8IyDEsKz3rDFfAy4qApcsZ9dhwSb8yMkFF9wIAzm7hS5ey1pvIAskESFKTKgDkjUcWytZjLE0xgpw7JP7R/fMdD/do5kREmrB+1U1VVE/z/SPp3uGzMfPj08VFBT8SQAAAAAAAAAC6z+ZGwAAAAAAAAAECyEeAAAAAAAAEHCEeAAAAAAAAEDAEeIBAAAAAAAAAUeIBwAAAAAAAAQcIR4AAAAAAAAQcIR4AAAAAAAAQMAR4gEAAAAAAAABR4gHAAAAAAAABNynCgoK/mRuHIjQvEOadHfi7/caZir8G2cNXJ2JytvxhMaHpEjDCnXsNMvTk123UcWFib/73deMBZqw7F5lKay2OS/qolk+jGLX0df8ks7WnTGLrxMp7nn8/tiiJ3S6epeuuGulx95Xn99xnBY+qdIqxwMUblDLytedNYZO7NhXc50DtaRX4dlS/UM5etosS9dwnv917pp+HwzGswAAAAAAAzBoPfGiu2fqlzUz9csf/zpQYQ/cLq5coZY5K9Sy+YT6zMJh96DG792oCSsnmgXwc3iXzs6x7mdb2CwcIjtftJ6fOS+pI2oWXqcqPtLvZvcoejyb0AbS1mwd7e3R3PqPtMgsAwAAAIAhNGg98eL+7Pua/J0/10cjsSee2csogD3QBk26Pa+uqQc1fm+Vsq5Fb5qMJXrFXdPeZ2nKrtuo4jFX0cMr4+fBbo8LA2mLWFsm+3xZz0FeINr5st54rUslb+er8HujzcIbS/z7MaqOzWsVOewoM3uFxpj3MFk9xerKuvfJeiva79ewf0fwXAAAAAC49gatJ95IN2pljUqrChVpsHuqzVmhljmnlLNjgUaZlXHjmTFVnwlF1dEclgonK9ssRwbOKHomKqlQOQvNMkkLJytPUuTUcAd40qJ1UZUoV/UENcqeXCiFT6gjGtJnpvr3lnV9f24+ob7CKpXufTLxeXH0Hj3dHLX/Q4ldf+Xrkl5Xb1hSaIJCM9z7lqRRUycoS1F9cHw4AzxJGq2v/yxXurtLbywxywAAAABgaKTfE+9Lm/WVquLE32/v1y9373DWsKTsifeA7li+UoW5iS0Xf1WnU//yprNSfD+JsKRNp2uWyRzBN/ov9+mLX741sSHZefUrzZ4/MxZowrIJ+mDzWl2a5ZhbzrfXiKPnllXJ23tFSqNeqnKHTHoS9tfzyuwt43t93vn1Eszjmtfgnrtq1MoaTSp3FBqcdc1j+s4VZzPrmvNlZddtVLEa1HIw33W9fvsctbJGkyae1enqLo3dWyU56/TTO8i6NrnvWcr7ZLZXP/fclqonntkWyXpI9TWsUO/kVM+20uuJZ16n85ixZ8w8j/i5Otqkv/0YzGfJ8+wkbSO/XqBWb6txx+/SF9bdZNS3r18++zOfhwzOv7+6GZ+/+Tn2PGeZsPavhhU6f0fss+A4j2TfJ/b1mJ89xe/VBe85JX2Pt83N59rvs2vp5zOV7NxtSc9Tn2hP/buarjxtmHurtrvKYhbqB/u/oaLob/TDb2/QEbMYAAAAADKQVk+80LxD+kpVsd5rsOe9q5mpX57+ogq/ZNZMLTTvCWm/Yz8Nbcr+8kpN/ssHEpXsAE+/qkvU+/EFfXZetXNXdoAnhX+c2N9vIw8N6LwkSWPy0+h1F9L4ZXb4M2eFWuY0KBK6V5PqHnTUeVDj99oBR7zXiTR+WY3ynL1LZizQhL32j9J4779XpFnO3n9nFKm2yxr6mfhsxgJNmHzK0YvwJXVEC1Xs7AWTrjTnWovPrxd/NSgiKdLg/rGbXTdf2uWo1xBWVvkT8bnvrtStdb2/r/kl136dP+TTm9PPmluveIyjXTefkMqfUKnrPkkqrFLpstvVadc73RxVXpVxnzRRoYkh9Z05rit2T6G8yY79HD6uD6JS1sSpxvNjvU/hI4kALq37lOY9T9OolTXKOeVo/1gPKbMtFFXWfame7fRYPVvHqGOz49lwHtNuM2+vxgeVUygpfCrxDKU5D1923UY7bHHf8/hzFolKodv7/Yz3vecIjZZcUomy9NYRM8BTojehT48xq7dYWJ2x5zbN80/VZhmdvyNITNz393XnAO6lFOsdGVbvTunK8bPq87luX+3v9/M5TWLnKUXk83maMVWfCcn+HFrS/z7o5/v4cJf6JGXd4d+7UJIUfd8nOL1Jb57OknL69ECFWWb79udVJEmhz2nG/WYhAAAAAGQmdYj3Z9/XZ+/2WW32N8uS9LTrX3T3o3rvPxwbfrNf4R4pe+IDig9Yyx+jbH2kyO8dvfP+41mdMnrYjc67Ver5g3oc+7v8L48O4Lxe1/nmqBS6V5PSWVjB1ZPGfq8jjBi18j7lKaw2R2+bK3WvqCMa0vhZiR/R2bPuVZanp9MZRVb69bRJ4fAunXX17jmjyJFw8iGLQyC7zurNaPZmubjS6EW2s0EdvqHX4Ii3v7NdD+/SueaoVHifEdBF1bE5ETpeOX5WfQppdJGjij2UNjaE7+Ipc0htkkDHDh1cw0KH4T5dqVvrvieHd6kz7BeghZTl6lkXe7bNNkvlQY0tD6mv+RXHfX9dHQ1hx76SXPfCycpTVB0Hk/RUS2bGAt1ZaATI9j3PKq9StqQr711wvGGi8nZsTISKM/KVpagutydqPF/aI/Vm6c2mxDan2LPiHloaC24dIWRaUrdZRudfdLt32Knn2UufNZTWvqbDx/VBP0NqXYpuV5YZjqYU+z52f5484WiaUn8fh3XZGa4ufFKlexNB/qi8kHShy/c7efuRLEXVp3ElZontJ79XuyRF/4cO/9wsBAAAAIDMpAzxRn/+HmWrTRcyDsbS9ab+6PxtKkldF3RRt6rwO/t0x58ZZQ6XIx9JuX+uLy7/fiIAHCCrN5jVEyyr/AmV7t2o0iTz4ZlzdVk/rsfolhnq50f8GV264OztZ/U4cvYqGXQD6QUzUAufVHFhuuGL3RZDwm5/n54zvgFd9Kyi/QxTVSw8cNZrf199Rvh0pe6IIkagEwsden2G6Llcy/tkuxLx7xLm/2wbbZaKHcR55i1rf9/d/naPK2evxuzJhWndE1OytnZ9NtvfV1/8c1qo0SFHkGmHTQmf6LO3S3r/5iTDJBNhqCuM9gtu05FOm2Vy/vb7PL1/B8T6rkpck/X5TRnCz1igCVWFkk+wn4o3IE32vZpKsvc5v4/t68mzxuWOumOMFD/2RN0yxvVGt6ab1S1p3J2fmCW2nfq7Rx7RIwylBQAAADAIUod4ebdKPRd02SwYqD/7viavPaSvOF6T7jbq/MezOlWzX+/pVhV+J1Zvs8xZ0y7/y6P6ZUObFeTF9mcMuc3M6+qID7eK9czL9Edw7Md1lRUEOl6uOclm5A+gh0r/suvcxytNtgrkoHtQ46sKjV5EDjMWaEJ/bTEUkvScUaphcx52CODcnz0UNO8+Z8hrDbNNBBv2ENzmBk/ocO3vkzW82HnM/uYgdBlAwBgLQcYvS3Wd9iIG8R6BAw+2R+WFJBWq2LhO1/xyh7sSgdjCycoLn1BHNBaKSdIFXfJ7fvtx8VTY1WPMCnxP6HyGoVVabZbJ+R/epbNzGhRx7XMAQ+uVCBidvRSt675XY43eo3lV7nPva4gtWJEhc4j6QMPRNL+Pr0SidqA3UaGJUkdzOB7qSVJf5OqHtQMAAADA1UoZ4lm93cZcdU83ybFYxdv7E3Pd1czU6bfNipK0Q2HHvHlSsSb5BHn6zTL3fu5+5CqDPMuVurX2PEvuIbCp2UOzwon5l1yv2BDPdOZhyoA1wXvUMZ9WqnmiBk92XZXyoid0zm+Ym3MBA0c79DfX3lDLKDi1wwN3CGBPkG8M93MFOsYQ3Jhrf5/sRVuiznkXYyuDpsEelukMcFKxer8Z1+h4OXtlXTzlGFKbrDdaGqyehY6VTl0v93DurDsmatQdYxQ5tUuXLlg9rkbdMca392ZKO085emA6507MTCZtlv75J/6jhDW3ojn3YnqyJxd6A0Y7HHXNDWmuTmucd2bcQ9ST9bRMLc3vY8meb7BQo3VW0ePvq69wsrLtEDCj7wwAAAAAGCKpQ7zzXZKKNWagi0U4WENzP1L4zQxXj/3NMjvIy9en+xleG91tB3lj/o/BCR3T5B4CaA6bTcb6cZlySFpaYosBOBZQuFZiw2h3+c/jZ/34TneYrd0mjh4wmbN//HvmextYEBB7jyccsgNe17xgOxvUYc8V5hmCKw3PfVo4WXmSIkf8708qVoCTYQ81c9hsfxxDagc6lFbmsNmkYnOfFSo0UbrcboWI8c+gq/fmTXrnfUm3f6xFjj14WfO3ZU2cqlFJgtu0pNVmmZy/YeeLdpDn10b3afVP9mv//v36wbfNMrt3pLHYTEssiPf5nA2WxJDaB5MMiU1Het/H8fkGF05W3oUuXTl8XB9EY0Pm+wmxKz7WOEndnX6Ln8henXa/9v9kte4ziwAAAAAgQylDvNjCE3dUGfPTfWlzxqvAWoHgrcr7fGwl2gd0x3LvcNrRf7nPs+/QpGJJXfpjfBGLB3THcrNnXrXG3C3pwv/MbPjvjAWa4LNqY/ase1MHUAufVHGhOyS5ePCE+lKu6mlP7O+pN1F5df5z8SVn/7h3/qBe+KTP8MXBlmIYrWNONefcVnk7kg2ntX9wZ7yQgps1P12hip3tOmOBCsr9h7cml2w+LZ/hflI8QMyaWKWxE0M+wdkw3Cd7OKxr3rm6NIfTxp5tY7XhlOy54ryr/PqJDamtUvEAh9JKiQB1/LL+eprZc5+VV2m87LBw5ylFQvequDzkGTL5dEtu/yuP2mKrtY6dNUFZAw1o02qz9M9/1MoajTeGuiYNZO+foc/Zj0PRFONN/fSOdPWiHAqxz1h5lcYPaCitJa3vY3uey+KqQvs41mc5r6pKeX5tZlt0X59CylJ3q1liY3VaAAAAAIPoUwUFBX8yN/oJzTPCtrf365fx1WKrVbj2Ed3hKE5o0+maZYoN3hv9l/v0xS/fGi99r2GmLkw6pEljfq3fbno2Hr55jtfjLrd4j3vxV3U69S+OVW3TtfBJ9/xZkmSuHBsbGuqupI7NxuqrUmIYo7E10mAMMfPs09ifp9zBdX7G8aIndHqXVGDPS2Ud0/+cLGG1zbHCmlEra5KGPH3NL+msPWzWGhpq1rA4r9PcX6RhhXonb1TxGHNlXtkhnz1c1ZY4Znrnb/HWNds+u87nHOz27mtYoY52x//26b1nXZeS3C/zfGLSuE9p3nOzXZ2c98l8tvuaX9I5zdek8guOc/S2u+dZzOCeK9n5mZ8pOc/PezxleEzfuo7VpGPn5Pccm/uSLuuN17o07vhd+sK6ZD2t5Go77z6SnJPNrJ+qzTI5f89x/dpesnvi/Y2+FJLaDz6iv/tJosT3MxJnP8vhBrUczO/3sxLX37PtWvXbkmgPv8+T9zOeYNb3r5tos1i5432xc03abp9oT/27mv5+vgq/l6zv90L9YP83VBT9jX7I4hYAAAAArlLaIR6MgKe/H6oArguL1p3X6qnS0RfG6vEmsxQ3tCW9Cs++wrMBAAAA4JpJPZwWAG5Q29eF1Ko+TV/8UYq58XBjuaw3ZvdIb4cI8AAAAABcM4R4AJDUaH39hTxFcyJa/XJGM23iuvWJ9tR3qaQ3TxuSDqMFAAAAgMFHiAcA/Wm6VV/4Wa509yU9b5bhxrPkoqbn5Kp+7q3abpYBAAAAwBBiTjwAAAAAAAAg4OiJBwAAAAAAAARcvyFeUVGRbrnlFnMzAAAAAAAAgGuo3xAPAAAAAAAAwPAjxAMAAAAAAAACjhAPAAAAAAAACDhCPAAAAAAAACDgCPEAAAAAAACAgCPEAwAAAAAAAAKOEA8AAAAAAAAIOEI8AAAAAAAAIOAI8QAAAAAAAICAI8QDAAAAAAAAAo4QDwAAAAAAAAg4QjwAAAAAAAAg4AjxAAAAAAAAgIAjxAMAAAAAAAACjhAPAAAAAAAACDhCPAAAAAAAACDgCPEAAAAAAACAgCPEAwAAAAAAAAKOEA8AAAAAAAAIOEI8AAAAAAAAIOAI8QAAAAAAAICAI8QDAAAAAAAAAo4QDwAAAAAAAAg4QjwAAAAAAAAg4AjxAAAAAAAAgIAjxAMAAAAAAAACjhAPAAAAAAAACDhCvExU7tbypnbNX2oWBMjSRq1tatfaA7uVb5YNq2rNPNCutUFvPx9l26zzjr1G2vmPHJ9oT/05/W7dJ2bBNfagxu/dqAkrJ5oFwTFjgSbs3ajSvU8q2ywbZtl1G1Ua9PaDw0Tl7dio0roHzYK0jdR7nl23UaU7FmiUWRAY9r3Zu1HjF5plw2zhkyrdG/T28xOUf2cAAAAGhhDPKcAhXdm2IAZzwW6zwXJycZFqKopUU3tUPWYhBs3zL7+r6Tm5OrTuJrNokAU3pBu1siaQwVyQ2yy4aLPhFdz253M+nG7S4/+aq9DUd/XGErMMAAAg+AjxrjdbKq3A6eF56jLLhtUOHXrYCsNe2WKW4Ua3aN15zb07S0dfyNHTZiG8Du/S2Tkr1DLnRV00y4bZxZUr1DJnhc7WnTGLhpUVnFi9mqxXEEOUq5e4zmt3fYN5z4fj/IPrjCLVVtt27DTLhtnOF9UyZ4VaqnfpilkWdFtztOF4lkpmn9eeCrMQAAAg2AjxAAyzy5o7tU/R42P0eJNZBlwta0jipHKpY7MViFivU8q5iiGkwTRRoYkh9TWfUESFygnaEMyURvr5Y6TYvm6Mjvb2afrij7TILAQAAAiwTxUUFPzJ3BhTVFSkzs5OXbp0ySwKjLJt7ZpV7NjQVq+axavif+avb9Giad06WFGpk/GttZrfNFe5xzZo05od3n0Ywvvs3mOVu7V81XT17CvSW2WO9/Qe1XZPz7dqzTywWuU5sb+jaq4t1aHG2N/WOWhfkRrHt2jRtJC9vTVxrvbxcmNvMTmPu7RRax8tSZQZ7eCW6tz8ju2uk3abpXOsOKtNCuN/m3XTaLMBsJ6R2L6kHvu58HDcf9/ehCnaLM5Tz//8zTb2P6/02te8xv6fj2tr0brzWj11lOof6qcX3sInVVqVeDKksNqcvdBmLNCEZfeqr8HdYyW7bqOKx5zQ6epd0soaTSp3tIGhr/kluyfRgxq/t0pZzS/pnOY73mMc0zbK2G9iP5bsuo0qVoNaDuZrwrJ7lWVvj8TP1TpeXvwdJsdx7euM7UNR69qS9YRJdW5WwPWExjuaxVnHfL/JWTe7bqOKHbcocX1eZl3zvFK3Wfqsa5A6Nq9V5LBZmuB8VuLt2d9zleT8M2kz+dUPN6hl5evW/56xQBOWTdAHm49o9LIq5Smqjs1rdWmWfXzz/sfr23Xk2JeDef6S47gZHNPcj+/9Mc8pVt88d7+6nvNPfDa9bXhBbXNe1BWzPQ2eZ3bMCZ3eJRWkeM7M++R7Hyee1enqLo11fJ7N75W0Pueez6V1D5I9v6nOTT73yvmcme83ufZnfhc7n1eDeUzzvFK32RBb0qvw7B61/qxAX99qFgIAAATTiA7x8te3qLKjNBGoxMIRR0CRTogXl0lIEz+G377sMMpzHnIELI7AKl7PDmTkDQXLtrVrVp53u5e9j0iSkCZ2Da7gsVoztz2gk4tjf9dq/oHPqtFxLCtQ8gmIUrWZ09JGrX10nHcf8bISV1AVC54SgWBmbZZaLABzX1f++kaV/bzSe479XmuabWbvQ87npXK3lj/2jjY57pf1Xne4V7atRfmvekPN/p+z5Ntcn51h84n21L+r6e/nq/B7o81Cy4wFmjCrS2fjPxRjP3C94ZZv2GIGM0mCgATHj+140GAf84L7B6v1I9V7HjKDgkK5fqQnC5acYYQZFpr8ry0m1kbuH/+jVj6p0PEX439n19XoloOOc7B/oHt/RKdqM4ck98Jit60zwIkFk44wIJM265/dDkrWTgm+7elzLZ577teOUhpt5vMcm+1jh1qKSh/sekVa8IQ+o6iyLhxRy6nJKq0aY9zfWCiyS1cWPqnSKhnPkl97GM92hseU/NvJLMvyC7SMACj1+fu3qf/nxr+uU+I5S3xO/Pbluec+n/NEEOb4zNmfJzMU9DtGUguf9G9zKe3P+aiVNRr73trEOfh85iyp2yzB/zvRkt7nPJM2GxqX9cZrXSp5u59/fwAAAAJmRA+n7VpjhBCN8/SLNknF96rMsXnQuXoxrdJbbVLuPQ/EF53IXz9ThWrVQUco07Vmk5p7Qyp/rDa+TbJ708Xr7dDJP0SlnHG6011r0JQ9ZgZ4suariwd4krRKrxiB2MlXj6pHIZXcX+3YOliqNbOyRGqrd4WqVptJhZXGgh6D1WZL53oCPEnqWuMT4KWUZpuVjFOuomr9uSM8bpznCvCkauXnSWo74eqdd3Kx+zzTfc7uHBeSet/SSdc1DiTA+47+saFBDclem75jviG1ikuakiO1tvTzA+rwLkeAJ2ueqCNhaaiH27l6Cp1R9ExUKpycmKdrxgLdWShFGhw/xA/v0rnmqLLKq4z5vKLq2Jyod+X4WfUppNFFrkqDZ2GV54e9JF2pS/ywl6SLK41gYGeDOqJS1sSpQ7Li5KiV9ylPYbU5gzK7zVR4n/JmOGsPQpvNmKrPhKS+M8f7DfDSN1G3jJEUPuUKXzztmI74PXIGOa+royEshe7V2PizHVLWhSPx/WeFLqgt/nlwtoc9FDV2rTtPeYekxo65q/9AM/1jZiDc4AiGXldvWNKYfMdzlsb5Dwn358R6zhzHzehzLkUaHM/CzlOKSMq6Y4gWikjzc36lzhHgyTr/zrDc32eDKLPP+TVuM5fROvG2pNs/ZkgtAAAYMUZ0iOensztqbhp04ZM+PdziqlV2T8gTwEg71BWRlPdZVyDV84c3M+w9djVqNaV4gMdsfGfoVmatfEAlOVJPd6tR4B/QDej8fZSVlXjCrUHl12at3epRSOWrWjSz0iyMsZ+V4rlau80IfePSf846u6NSznQtuurVjX+sv66qUlWy1/Ifm29IreRjhZQlz61Ppf199ZnbBlmq4GfU1AnKUli9Rm+RK+9dkDRGtzh/qEbPKpppyHMVsicXDvCYZ3TpgrltsFghjaLve9rVN6Ab0PkPNbt9CqtUepXz6WVPLpR0QZfMa/QJMSKnHCG2T/tJscAyqg+Ox4KysC5HpbzJifPM5LlI65gZcO3PTxrnPyRStEdGn3OfekMpk/tpuhIZqv+vlOHn/Bq3mam1O0vK+ViOyUgAAAACbYSHeLWa39SutY6Xa96vYVGivBw7gDHOrb855K6Jys8qV1JPhzmvmlf++hbj/J1z1Q2N5Oc1TvlJA6+Bsnu7Rd4ZlEBQ6bZZ4zxtqqhXWCGVr4rVa/T0HD25uEjbj0Vdz9Hy9c5ekOk/Z11rSlWzr9UK8mL1koaDwZRd51xVdKNKnfPCDZNReSFJhSp2rXi60Zi7bzjYvcUudHl+RHvMWKAJxvl75kobbP2c17XpfXN1Lq5codPNUSvIs9tswsoBnrdP0BGTlZfZjbDCJmcoGOs96u35FERBPf/r4nOuBzXeOP/+5sAbFP2c10j4nAMAAATVCA7x7PnAeo9qe0WRauzX9mND9V+X09WqSK895NZxXvFXxvO2DSK7Z1ju+P6HxDrnokuce73CZsVrpltdg95bzttj7Wpk1mar9Eqszr5WSSWa5RPkda0ptfezQc29Uu601Y4gL8PnbEtlvOxgW6pefskMwXDaNFjzUUXdK4tuPjHkPfFSsXqyhNUWX+3U+RrA8MpBY/cWcw1V9OGco8px7m3+D+010fdeqnm4MnS4S30a/OHBV+rW2u31kjX8uPyJgQd5SfRFMrkRdu8nI2yygpqQPjN1cM9t8AX3/Ef859w5P53j3E83D9//Vxr0zzkAAMANZOSGeEvvVaGkcOMAQjH7vR5phlz9G9xwKMYaEjmAed9crODHOX+flz1Ms/eoGtOZM20w2qzxTbX2SoVlZqiUbMjo4LDadIrKrrqXX4Zt5rSl0g7y+uttuEOHHraDvHGxQT8Df85OLraDvIzfOwTDaVtvVlR9il+Wx4PKKZQUTszPlT77vR7WML1MezqZ/IfTXZ3B2ueVSFQKTVCon/1YPZ+i6jiYYpijNEht5jOvoC3ZkMV0Lfz7/dq/f792rbrPKLHnXkvRFslY59WfM4pU20Gep236b7OLp8L+57VwsvLkHFaaBnvuv0iDGTLZ52aHmNZzcbs79FlY5VqdeFikef7+YgGgqf/2T9dgfSadBmuf6XzOredJihxJNQ+iBqnNhuNzPnAl4/qk3puV6YwOAAAAw2Xkhnit3eqRO/gp2+YdTtvV0S2pRFOW2hvsVVD92SHXtLmeXlGZOPnqUfXkTNeijHs6JRe7jq+5hlRmaocONdrDKl3nVq2Z22LzpdnhkDPcqtyt5X5DQ6VBajP7vIrnan7sPknKX7/cWnji1f7mIBy4rjWH7GGt7l5w+esb+5mvzk/6bZa/vsV1jYrNzefqbVir+eb8dT7zBqb3nFVr5gGzl581N+JgDiUesKZb9FavVFJ62SyxWT8qXT8IFz7pHU5r97hKzJ/lWGHWIzav2VUO09vZoI5oSOOXPen5sTpg7e+rTyGNn3V184BdqTuiiLznNmrlk/FrtoIEZy+nicrbkWw47eC0mXVehSp2zic3Y4EKykPqa25IvVKnr4X6vH3Ot35uhsyf9xdXNthtUWOc+4Ma7zgPMxBJrJzp9KDG71jgDpRii2d4es6laLPY87PAub8HNb6qMOPQOnk4Ygcq9nXFFm24M9ZrcMYCTagao77h65QlZXD+8ZApHurFVmc136fU7Z+uEf45j80f6pobsS7ZcNrBabOh+Zzfp7vGWP/r1j//pgZnvZPLuvduSe/frO1mEQAAQEB9qqCg4E/mxpiioiJ1dnbq0qVLZlEwGIFcz7ENelXLtWhatw5WVMZ7b8WGOlpadbCiXvkHVqvkDxtcq6Fa7GG6ji3hfUXWSp6Vu7V81XT1xP62lW1r16w8c8VX737k3JddnnvMfQ7WubrP313m+D/ejlVmy7Z550KLSRzTZl9HbnyDuUJrtWYeWK3ynNjfrTpYcUJTfM7X4r1Ws80Sx3IwV8n1BKytRjtk3mapmddqPUeJ/XuvLcF5fuZ+kreZ516Z7SD/dvPcRynp+bnreuu4r3F4LVp3XqunjlL9Qzl62iyUvIFc9IRO75IKlt2rvoYViVUXY8ND7T8jDSt0/o4aTZp41rHKbIz3x39f80v26pnW8bLif1usUOeC2uY4VxONDfd1bJCkcINa7NU8s+s2qniMc6XbxLm6zj9m4ZPGfFvh+DH9gyVL4vxj+rtGi7m/SMMK9U72OV8pxf76C00T52/x1o0Y7ZBpmy38+/36RqH00a9/qAW1R9yFNu99Ms/LqBM9odPVXRq7t0rq5zmTz/kn9NdmaZS7rtmuK7td7Ock0vCSLt/3hMZfSDxzLvY+FNuv6/my2kB1G1Us+/1pHXOFOnZ672OCo22T3LfEPT6u0I4Mzt94fvqaX9LZ96pUWiXP/UzVvpk8Z97nx/059/9+8P8ukfr/nPs9Y3GuVbOV8hol77H6ml/SOc33OV+l3J9vO9jcnwPv82F+TjJus2//QPtnFUlq1z8/8nfy/chlYkmvwrOv6OgLY/V4k1kIAAAQTCM7xANwHbisN17rUsnb+Sr83mizEAAASQv1g/3fUFH0N/rhtzfIP65P1yfaU/+upr/PvzsAAGBkGbnDaQFcJ0ar/niWdHeX3lhilgEAIC38+2+oSB/pN/+fqw3wpEXrLmh6TpaO7ifAAwAAIwshHoBht33dWNW/LZXMPq89FWYpAOCG9e0faP/+/fpGYbv++ZEF2vBzs0KGlvRq9dQ+tf6MYbQAAGDkYTgtriue+eZ8mXMAIhis4U1TTt+lL6y7ySwEAOAq8e8MAAAY2QjxAAAAAAAAgIBjOC0AAAAAAAAQcIR4AAAAAAAAQMAR4gEAAAAAAAABR4gHAAAAAAAABBwhHgAAAAAAABBwhHgAAAAAAABAwBHiDaXK3Vre1K61TY0qM8uGytJGrW1q19oDu5VvlgVZvK3s10g7/5FkSa/Cr/XqeXN70C18UqV7N6p0xwKNMsuGSHbdRpXu3agJKyeaRRhC2XXX9j5nbqLydljPxviFZtlIY19L3YNmwfVlxgJNGMr7Ze+/NPYK0vNb8ZF+99p57akwCwAAADDSEOIhGBrnaVNFkWoqinSwzSzEoKn4SL+b3aPo8Ww9bZYB10hgQ7qhDnquQmDbDJbDu3R2zgq1zFmhtrBZOMyabtWht/s0/akR+B9vAAAA4PKpgoKCP5kbY4qKitTZ2alLly6ZRcCQKdvWrll5R7X94XnqMgtxFS7rjde6VPJ2vgq/N9osxHUku26jigvNrZIUVcfmtYocNrenYeGTKq0qvLp92LLrNqp4zAmdrt6lK2ZhGuVDZsYCTVh2r/oaVqhjp1k4vIauTSYqb8cTGn+hQS0rX3dsf1Dj91YpL/73AO+73aZZxua+5pd0tu6MsXUIJbu3nvMLq23Oi7roqJKpobtXV+MT7al/V9OVpw1zb9V2sxgAAAAjAj3xgBvEonVRlShX9QR4172LK60eQS1zGhSxAxPr7wGEMLbsyYVS+IQ6oiF9ZirDi69rC59U6d4qZcWfmxU63SyNXzbwXoqRhtgzuUKnm6PKKn9i2Iepj1pZo1I72IudW1u4UMV7a5Q3w6w90t2kx7flKZoT0fJ1n5iFAAAAGCFGcE+8Ws1vmivtK1Lj+BYtmhayt7fqYEWlTrrqVmvmgdUqz4n9HVVzbakONSZq5K9v0aJp3TpYUa98Z93eWI8wax8lf9igX4xbrVnFUs+xDdrUMVdrHy1x77Nyt5avmq7c2M7j+/Cyjhs7d0lt9apZvMpZRYr1TitO/N1zbIM2rdmR2LC00T4PW5L9KI1j5q9v0aJ73tL2h99RZdNcxTr0eI6ZEet+JToH+d0nS6qeeGZbmOcfY9bzPX/zXiU7r7Ta17xG73M2fKxeeOOO36UvrLvJLLR7o0zQB5vX6tIsRy+uqF9vErOHjtlzxdGz52C+q5dLvPdN/HhHNHpZlfLsXj7xYzuPG+8BZgubPYYSzB5o/r19zPP39jAy9xMxe+84mHXNY2bXbVSxvG3ht89RK2s0qdzx2eznWtNjXWuWbztYUp2/xdqPGlbo/B01mjTxrPFc+B/Hup4L1vPh6fFkcNzzeE+mXVJBijZL9XyMWhk73y6Nddx353WabWBKHNd+tuO3yPvsuKQ4N/kd21kngzazmM+2+dm0eI4p53GT9cyLvS+2zzQ+50rWA84+z8E6f5929e7LkriX/s9s/Ppln1tG340W/554sWfH55rsNpLnXAbf8y+f09y7c1X/UA5TKgAAAIxAI74nXuGj7VbgVFGkmooNau4t0SzXogi1mt+0WuWRetXYc65tPyaVr2rRzErXriSVaFaTFdRZdesVzpmuRdtqE1XuWa6vdW/Q9mNR5d6zXMsflQ5W1CuskErur7bqpDm/mxWmSc21Vt2aiiJt756p+Uvd9awwqlUH7To1FUX6xbjl7vPfUmmXbVBzr2O7S7VmHmi3w8rYvuoVLp7rXUgiZ7oWNc1UJHZu+1qVO22159zSsrRRa5vmqrAtcQ9qKk5oirNd05S/vkVTTibaoab2qHqK52qtsa+02swO8HQsdr+LVFPbra8Z+8pf36K1j45z3Ce7zVz17ADPdY2HlLc0IAt0LLmkEmXprSM+AV5cSOOX2YFTrBdX6F5Nck54P2OBJhg9dKyeK08q27krSSqsUumyCfpgs93LpSGsrPInXD15PrPgPl3e/JLVu2tBjXXshrAUmqBQrCfMzhftY72kjmjivaZEwJDoVdOZN9/oUWP/sA/HrnGFWuYc0egF7rnG4j3ZNp9Qn2O724Mav9f+sR7b1+YTUvkT3kUCCqtUuux2dTp6IuVVuXv7WIGX1BFrrzkrdDpy34B7PqUjvTaTtHCy8hRW707pyvGz6nPen3SZc4ZFHe02Z4VazEAkdK8mOZ4fq83cz9molTUqrRrjaLMGRQqrvO0fuleT9t6ny0meRfN+O3uNtcxxhk9nFKlO7KM/2XUbVVpV6N7Xqcmu+zlqZY1yTjnKN59Qn/P8M2mztD6b1iIWrmfW/FwtrNL4kBQ5ZYZi0sVTYUmFynE+k2l8zpO60JXh+afRZkn2ZX6WR628T3mK6oPjZmh2RtEzUfd3kP3deGcktj+f78aUzihyxKf9JI2aOkFZvucy+J5uyZXUo3uXmCUAAAAYCUZ8iOfu5bZDhxpbpZwpKrPDmvz1M1WoVh109JrqWrNJzb0hlT/mDZHC+4ocvbVW6a02SXmfjQcxuTnd+kWsPCeknn2JXlu54xw9tdJw57iQ1PuWTjp6anWtKdUrW5y1qpWfJ6nthKt32MnFA+jhtXSuynOiaq519jRbpVf2tUo501VpBHThfY5jbDmhsKTc8XZQmbZqzaws8em5tkqveHqypeZpn8Z5+kWbpOJ7HSsAp9lmJeOUq6haf+7ondc4T5tc51Wrymkh9Rzb5Hiv3WbFMxOhYOVnlSspfNK4xiS9CfvzF8/uVUNDQ5LXXq37L+Y7Unu+tEfqzdKbTWaJwdWj5XWdb45KhZPjP6KzZ92rrOgJnXP0Frm4skERFepOz9C4sNqcwzd3nlJEUtYdsXohZV04Ei/PCl1QW/zYIY0usv9nWibqljGSwqdcPVwurjR6Sc3IV5bMgOJ1dZgBUhqsECCsNud7D+/SueaoVHifEYRF1bE50fvmyvGz6jOucVReSIqeVdRxvlfq1np7ng2aNNtMsaG0dr3Dx/XBNRlS6+7lZrWZMwB5UGPLQ+prfsVxvq+royHs0/5SpKG/Z3GQzVigOwt9eg7ufNH1t+f+Ht6lzrBcn7l0pfXZXFil8aGoOnYlf95H3TFGsgNbj/b3fULtVJ9zr+w6q4ec83OY1vmn2WZ++zL5fd5irrx3wdwkhRscveReV29Y0pj8zBYasdsmb7Iz/Juo0MSQFE58Fw6prbeoVdK4OxlSCwAAMBKN+BCv5w9vukOS1m71KKS8EkmqVtk9IU+YI+1QV8QdzlmiirS6Nujk4iLVOIMY17689TPR2R21eryZveBc7HP19PzKXFlZiaRudZnhn29A16q3XGHiAFU+oJIcM9waXJ3dZvesNNvMflb8e2Xalt6rQjPok/mcSWp8Rz12z9AB9VZ0+Lfvz1FVVVWS1xyt+1fzHal8os/eLun9m1NOZm72vrF+zI7RLTMk6UHlFEp9Z44bAUBYl6NSVp4xPi/6vlHvdXXMWeEaLuY6nqd+Js7o0gW7V1B/vWMOd6lPUl7VwOf2stg/vH3O2S+gSxYWOF2JRK0eY9dsBdI028y+74l7Zb0va+LUoT3PVG22cLJ/T6r2973tnyyUGiJWz6qBHfNKxPw+S0d6n83syYWp2zUNroDO8xnwfs5lf+ZK91qvWO9P5/DadM4/GXebJdtXptzPkPndODB2+OcMaWdM1WeS9HwcGjeru1cKjfvYLAAAAMAIMOJDvP6VKC/HDnOa2l0v15xqw6RrTalq7F5wi2Ln5hM6nVxcpO3Hoq7rWL4+0x5xtt5udZrbbJn2JEyL3dvtasJOt1rNN+6la34/W1pt1jhPm+yh0OWrYvtrdPTok/LHj5Nc5fbLNY+erF539lDmwkdj9foJB0ciuxdbVvkT8R/j1ss5R9jwubjSGnKpwqr4uXknzn9dHfbwwUSocBWT2DuHAxr664nk50rdWnso8b2aFGvbfsO1q5dWm9lh2eX2xKaLp6zzHHtVQejVsXqMWcMcXc9jf3PIXSNWLy8z3PJjDcl2nr9rTsR0XePPZt97yXu4JRMbVny6OSqZPXczOv9BarOU3M/8YLl48ISrR+moqROUFT2h8wMIfAEAAHDjuc5DvFZFeu1FCBxzo8VfAxjqOOjic9nZ8+cl6T3WtabUrmcFRbnTVntDqavU0z1oSVuC2WPtqtjzzvUetedAtF7bj/n3XEmvzVbpldi+9rXa8yImgryujm5ZC1T4PD8VRcbQ5x069LBdVns0dS+/JIZiOO2gsHuxJVY6NV6eieWvvSt1a13zfPmvgOmY12zzCfUppPHLriLIS2IgQUdi/j97DrSUveSuXqo2y55c6A3L7MUa3MMCry2rl2jUNYeg8zV0w5BTs3pV3p6ip6JjcQfHeVshV4YG8bPp7n1rKLpdWVcZbl2pe8V+zqoSvdHSPv/Ba7P+7pEVEF/Qpavssejr8HF9EI19dqwevVffaxAAAAA3iusuxMu/f4py40NBkw2bDaaTi+0gr9/z3aFDD9uhVIY9506edM8XGJdsyOhgiA0zLfMGkxlbeq8KJYUbMw1f02yzLZV2kDdO+bE2GmgI2ThPm+wgL9P3Dv5w2pv0zvuSbv9Yi8yiFNzD79Ib2hYMZxSptkOp/s738C6dtYO8zObgsye/95m77GqGUjpdXGkHeX7zbt2/Wrv279f+/T/Q4HWG82sze2iiT7hihYze60+whxz76C9ASZvvsNmrZIdJmfaiNFlBmHcBA5eFk6154Y4kn5/Oqf82S++z6bsPeyGLuJ2nFFFI42d5A9rBGY6bWOAh0RsvvfNPr83895U9y91DMzbHoncuz9gcde65IgePff2Fk5U9Y6o+E/IZEh53n1b/ZL/279+vH3zbLBuojzUuR4p232wWAAAAYAS4vkK8yt16bFpIPcfq4/PWnXz1qHrMFWYDoVozD7iHbkq1mlIsKfKOI6Sq1Xxzzjx7nrmMe85tqbcW9HCtmFqr+Y+WSG2HMl8oIy2r1GgPa3X3gqvV/EzvSWu3JxAs2+Y3nDa9Nstf3+KZv84zb6C9cEbhoyl61C1t9PTyswLlwRxKPHBPt+RKOX16oMIs6cfCJ1Vc6PzBHPvxWeXTu224Pajx5lxy9lxTfRHHKqILn/Sce2xlyEx7F12pO6KIClVsrIpZUB5SX3NDhgHAROXtMFf4tQI0vyG79037nG6VJBXp8wP+cZ9GmyWbd86zUqkdnMTnyZuovB1+QyEtsZDLG6BkwF7QwFzl9+rY1+HsJTYQOxvsIdvGuS18MjEXo71IhLM3Y3Zd8qGh/bdZep9NT3A1Y4EmVI1Rn6sjW2xBmyrPSrrFhf0vipE2u30S7Zze+afXZrGAPbG4yaiVNSoeE3UvymE/P1nl7tWYs+ue0PhQ2LHIzhDYecr67lh2r7L6XdDibn3GvrSiGat1n1k8EEsuqURSd2d/K5UDAAAgqD5VUFDwJ3NjTFFRkTo7O3Xp0iWzKADsoZXG1vA+c4ij0qqbv75Fi6ZJzbXJVn2t1swDq1UesVZZdde392+vwGqV+f8Q6zm2wbH6rfe83OW2yt1abszBZl5n2bbk8/y569rXkZMoN49pnX+3DlY4V7G1zjXX7/zSsbRRax91dklrde0/7TYz9tNzbINe1XLv+abRZvJrN9dqxwm+52fU9dZxX+Pwuqw3XuvSuON36QvrfH68zVigCZ65xNyrg8alrGsHODqh08lWfbX30dewQh07jfoLn1RpVWF8Zc/suo0qNj+8Ntfqnz7n5Vkd1P5B7/7RH1bbnMTKsfEhe44aCanrmsfMrtuo4jFGW7iuP7bRu6++5pc8CwRIdk+8v/6SblW7/vmRv5PZ6S95mxn3NEWb+Z57nH2+8RWN3eff1/ySzr5XpdIqGW1m8dyHaOI4vsf1bTOf/ci9L6v8gu99y/JtX+99iLeJT3vFOY4Z47kPrtWfrVAvNjRZdpud03yf87V4rtU8pu/5GffcdUzreVbdRhWr/3PzPvtpfM6V/L7F9u96xjM+/+Rt5mr7cINaVkrj91ZJqZ6fJG1qnr/5jHr24+D3OY6dn/l9Ybpv1S79zZ/fKkV/ox9+e4OOmBUy9PzL5zT39jxtmHtryoWOAAAAEDwjPsQbcKgE3GAWrTuv1VOloy+M1eNNRmGSH6oAgMFnhXhmMOojFtiH/1mP/Ner/HKu+Ei/eyqi7p8V6OtbzUIAAACMBNfXcFoASW1fF1Kr+jR98UcZz40HABgssbkmUw27v0+r/8rucXu1AZ4+0Z7FEYV681RPgAcAADBiEeIBN4zR+voLeYrmRLT65ctmIQBgyE1U3g5rhd1znqHcCfet2qX9+/9GX9Jv9EOfIfOZev7ldzU9J1f1DKMFAAAY0RhOi8z5zDfny54jEAGzpFfh2VL9Qzl6OraN4bQAMIQccy2a8+4NtYqP9Lun+vSW31QKAAAAGFFGcIgHAAAAAAAA3BgYTgsAAAAAAAAEHCEeAAAAAAAAEHCEeAAAAAAAAEDAEeIBAAAAAAAAAUeIBwAAAAAAAAQcIR4AAAAAAAAQcIR4AAAAAAAAQMAR4gEAAAAAAAABR4gHAAAAAAAABBwhHgAAAAAAABBwhHgAAAAAAABAwBHiAQAAAAAAAAFHiAcAAAAAAAAEHCEeAAAAAAAAEHCEeAAAAAAAAEDAEeIBAAAAAAAAAUeIBwAAAAAAAAQcIR4AAAAAAAAQcIR4AAAAAAAAQMAR4gEAAAAAAAABR4gHAAAAAAAABBwhHgAAAAAAABBwhHgAAAAAAABAwBHiAQAAAAAAAAFHiAcAAAAAAAAEHCEeAAAAAAAAEHCEeAAAAAAAAEDAEeIBAAAAAAAAAUeIBwAAAAAAAATcpwoKCv5kbowpKipSZ2enLl26ZBYFVmjeIU0a82v9dtOzumwWputLm/WVqmLHhjadrlmmqGNL8H2iPfXvasrpu/SFdTeZhYNjaaPWPlqS+LutXjWLVzlrGKo188BqlecktvQc26BNa3Y4K2GwVXyk3z3Vp7deGKvHm8xCAAAAAAAwEtATz2QHeBd/Vadf1sy0X8Mf4H132wtqOvC4KsyCJJ5/+V1Nz8nVoaEK8CRpS6VqKopUU7FBzb1moSkW4LXqYEWR/b4iAryrdMfdk/TNp3+g6d9aYhYlNN2qQ2/3afpTvXreLAMAAAAAACMCIZ4hNKlYUpve+Zc3zaIRY9G685p7d5aOvpCjp83C4VL5gEpypJ5j9TpplmHIPf29u3S0t0dz6z/SIrMQAAAAAAAEHiGen54LAx+KO+wua+7UPkWPjwnk0MmeDnreDY+b9Pi2PEVzIlq+7hOzEAAAAAAABNyInxNv9F/u0xe/fKt7Y485J94DumP5ShXmxv7+SOEfP6r3/iNeIW5Q5tSTpMrH9U+rypRtbteH+mXt9/VMo/3n0mVqerQgUdz2mioW2+lb0n3Yek/quYf3yJnVLVp3XqunjlL9Q8l74eWvb9GiaaHEBt+57Mz566Jqri3Vodh5u9h1I377sVXu1vJV09Wzr0ivbDELB9cdd0/S1Me+o/PnzurihfOaMPW/xMvOHv9X/e71A566N4++RZL08eVLOv7qj/Xe26fjdSRp+reW6M6Jn3dt6+v9QL/Y87I+PN+p6d9aorEFE1zvdZ7H0Z9ujb8v3WNWLF6l3Py74n93nvl9fD9+5+PkrOv0/MvnNPfu3H6fj4V/v1/fKPxIv/nHBdrwc7MUAAAAAAAMhxEd4oXmHdKku92LTnhDuGoVrn1Ed7y9X7/cbfUCs4I/xYM83yDQ4eKv6nQqk+G1dvimY1v1zTWtkkr03IEl+krOOb1asVk/sqtVrH9Wz0yTI9Sr0Namh1TiDPJs3932gh7L84Z2btZiFtPfz1fh90abhVI8wJMrkMtf36LKjlJHuFar+U1zVegI9/zel5AsxLP349ji1qqDFZWDPrzWGZI5A7Lp31qiO4rv0e/f+O9q/eWbKvnKA/r81/8vvdf2h3jgVbF4lbI/k+cK1ZJtG/XpWzMO8a7mmH/x7f+qd//wG7X+MvEs+h2jX0t6FZ7do9afFejrvtUX6gf7v6EiSR/9+odaUHvErAAAAAAAAIbByB1O+2ff12fvlt5r6H/RidF/+ZDuUJtO2wGeJF3+l5cU7rlVhQ9U238/Gl/E4vTbdk+++KIWMzML8CRV3F+ibJ3ToTWt9pZWPdN4TlKBypbGa2nOtNt08dieRK88NWnJvnNS8Vf1XGVsWwYqLmlKjtTa4h/gSdKd40JS71s66QjiutY4Azwpf/1MFapVBx2BXNeaTWruDan8sdpExZRW6ZXYIha1R9UjKbwvsahFzRAEeE59vR/oX//b38dDsO72M5KkrJzPSJIKSr+iSxej+n3TP8ff89Yb/yRJKv7yDMkO3UJj71T7yaOennIDkc4xbxt7p0Z9+lZd/CDiOua//eTvXQHegGy9Ra2Sxt2ZbEjtTv0+LEkf6X8cI8ADAAAAACAoRmyIN/rz9yhbbbrwG7PE6QHlTrxVevu3RtD3pv54QdKY/0PJ466BmzDuNnOT7UO9H8v1lk5SiT7UqZ/HNthaL+iibtPtJe7NaSn5WCFlqdvYpVNnd1TKma5FB3Yr3yyUJFWr7J6Q1HbCCNh2qCsiKe+zSd4XPFf++JE+PN8Z/7v1l2/qZxtW6HevH9Add09S9mfy1Pveu646fR/26MqlP+rTISvoG1c0Uf/74/+l91qvPsBL95gfnu/UlT9+pNz8u1SRbHjygN2s7l4pNO5jsyBu5399RI88wlBaAAAAAACCZMSGeOkp1qdzJd39iL6y9pDrNelus+7g+dGrJ3VRBZq5PpbElei5ygKpt1VNdg+4ivFjJN2mr6x6QU1Njld/c+ANgq41parZ12oFeU3tWtvUrrXbnL3rSpSXI6l4rlXmeM0qdlQb4W4bm6//dPN/1p0TP69Hnt0cfz24dHW8p95gy+SYTdtq1Xnm98rNvyteb/q3lrjqAAAAAACAG8d1HuK16Y89kt7eHx8a63pd7eIVyZSMUbak7GlL7HBuib4i93x2TR0X7EUunlJFhfe1ZCgXf9hSGR/SerDNDuziQV6rIr32YhfxYa+O18Pz1GXsbiT68HyX/vfH/0udZ36v/d9f5nk1uYLNwZHpMY/+dKv2f3+ZXt+yQX29H+jOiZ8nyAMAAAAA4AY1YkO8y+e7JOXr03/m2GjPk5cwtMNm/dm97tpecwdz5oIUGQ6bPdv9oZQzRhPMAqfWmxVVn8aluU9JOrnYDvLiw2SHedjs/au1a/9+7d//Ay00ywaROYQ1mYsXzus/3fyfddvYRGvE5slL5Y6SSfEVaJXBMU0fnu/UL/a8rL7eDzzvzXyfH2tcjhTtvtksiFv49/u1f/8urb7fLAEAAAAAAMNlxIZ4+s1v9Z4Si1NI1Sr8zp9LPR+5qkXf/LUu5v65vjgvVm+otep/RiTl3aEKs8ipcY8OtUkljz6b1iIWVs895xBdH0236K1eqaQ0Wf/Cas080Kgy17ZaTSmWFHkn3sPu5KtH1ZMzXYuGoDdaSnd/RtY6wUWqWHWfWTpoPjzfqY7TJ5Wbf1e/vdveaz2t//3x/1JB6Vcke167yX9Rpf/1xz5XvYsXzuvm0bfojpJJkqQvPPiwJkz9L6466R7zjrsnqWLxKt3mCArvuPv/1C3ZIf0x+oGrbmz+vNDYO1XylQdcZb6WXFKJpO7Om8wS20J9vlCSbtXnpg1d+wMAAAAAgMx8qqCg4E/mxpiioiJ1dnbq0qVLZlEw/Nn3Nfk7f27PIfeRwj9+VD2f36cvTvyDfusaKlutwrWP6A7HWyXpvYaZChsLY4TmHdKkMb823p+pCm1tekh+cVvrPvdQ2Yr1z+qZacZCGL3uobcxnro+9RatO6/VU0ep/qEcPe3YnlCr+U1zVejY0nNsgzatSazea/HWk726bGwl27JtyefJc9aTJFXu1vJV09Vjbve4T6t/8jf6Ukj66Nc/1ILazFdIvePuSZr62Hd08YOIZ4iqqeQrD+jzX/+/9J9uSoRa//uTT/T7N/57fCVYZ51YWUHpVzTq07fqF3teji9SMf1bS3TnxM9Lkj6+fEknD+3V5Af+X+p9710d/enW+P4zPWbM2eP/qt+9fiD+d8xtY+/U1x7/nmtevc4zv3cdM+b5l89p7u152jD3Vm03C20L/36/vlH4kX7zjyxuAQAAAABAUIzsEC+Q7ADPJ2D77rYX9Fjxh/pl7ff1jL3AxeC7rDde61LJ2/kq/N61G0Q8mO5btUt/8+e3qv3gI/q7n5ilwVCxeJUnxAu8io/0u6ci6v5Zgb7uzfcAAAAAAECAjdzhtEFVeYfyJV38w688PenOdn9obBkKo1V/PEu6u0tvJB+xGVz3r9aiP79VCv9zYAO8kekT7VkcUag3T/UEeAAAAAAAjDiEeIOt8T11Scq+58vuOfEqH9dfT7tN6m1V05D1wrNsXzdW9W9LJbPPa0+/E/MFyX1a/ZP92v/XX5J+/UM98l93mhVwFZ5/+V1Nz8lVfT/DaAEAAAAAQHAxnHZI+M+Jd/HYVn1zTauxdah8oj3172rK6bv0hXXJFjHAQI2o4bQVH+l3T/XprRfG6nGzeygAAAAAABgRCPEAAAAAAACAgGM4LQAAAAAAABBwhHgAAAAAAABAwI3IEG/27NnKy8szNwMAAAAAAADXpREZ4gEAAAAAAAA3EkI8AAAAAAAAIOAI8QAAAAAAAICAI8QDAAAAAAAAAo4QDwAAAAAAAAg4QjwAAAAAAAAg4AjxAAAAAAAAgIAjxAMAAAAAAAACjhAPAAAAAAAACDhCPAAAAAAAACDgCPEAAAAAAACAgCPEAwAAAAAAAAKOEA8AAAAAAAAIOEI8AAAAAAAAIOAI8QAAAAAAAICAI8QDAAAAAAAAAo4QDwAAAAAAAAg4QjwAAAAAAAAg4AjxAAAAAAAAgIAjxAMAAAAAAAACjhAPAAAAAAAACDhCPAAAAAAAACDgCPEAAAAAAACAgPtUQUHBn8yNMUVFRbpw4YKuXLliFg2rhx56SL/61a904cIFswgAAAzQX/3VX5mbBmzi5yZIkp75f1abRQAAAAAGgBAPAABIdoi3Y88Oc3PGqh+vJsQDAAAABllaIV5vb69ZNKxmz56tI0eOKBKJmEUAAGCAli5dqs3/bbO5OWPL/u9l8RDvyb/5W7MYAAAAwAAwJx4AAAAAAAAQcIR4w6ZW85vatXx9tVnQv6WNWtvUrrUHdivfLMPIsfBJle7dqNIdCzTKLEvXjAWasHejtZ809pVdZ9WbsHKiWTS84tfxpLLNsutJinseuz+x1/iFZo30ZdclP07CROXtcB6zRnkzzDrDo2zbAL7jKndreVO71jY1qswsuxEsXaamphcSr20VZg1JJXrugKNO07N6rtKs4+cT/fSVd3Vq9SdpbgcAAAAwFAjxkMQAQ0ZcO4d36eycFWqZs0JtYbNw+I1aWXP9B3OD6OJK6162bD6hPrNwSJxRpNo+ZkMAH6AAG1DIONS2bFZFxVOqqNiqXyadAaNVzzz8lFVv3zmzMKkXftipr4ZC+v9tuMkouUnf+reQQl/u1JvfMYoAAAAADDpCvJFmS6VqKopU8/A8dZllcDB7GQWsB9rOF63wpHqXrtWyMbGQ6GzdGbNoeMXDyBd10SwbKrFecdey99kw3PMbSuM8baooUk1FpU6aZRiwxavf17eKPq1/fzGkp8xCSfpxSDW/+rRKvvG+fvoXZiEAAACAwUSIh+vQgxq/9wmN1wmdtnuqtcxZoXOaf1VDFHH9yJ5cKIVPqCMa0memBijcBQLliv7fX/6jor/K1bf+zSxL2LYhV/8e/aO++p0+LTYLAQAAAAwaVqcdMrWa3zRXhfG/o2quLdWhRnd57rENelXLtWhayN7eqoPOniSVu7V81XTlxv6OaatXzeJVxkbzmMa+4qo188BqlefE/k6cW/76Fse5ePUc26BNa3YkNnjOL9kxr51RK2s0qVzq2LxWkcNmaUJ23UYVq0EtB/M1Ydm9yrK3RxpWqGOnUXnhkyqtSrSswg1qWfm6s4YlVb1U5XETlbfjCY133Iq+5peS9qLLrtuo4jEndNqnl1d23UYVOw7pe30zFrjawMlzXPMaFFZbvBfdgxq/t0p5jlI3R13zmFH/85d86rqOGSufoA82r9WlWY7r9d2ndY5qWKHzd9Ro0sSzrjpWexn7d7wvz3XP0rhPZnslvec2+1r7/O6TozzRFlHPsx5/HnZJBamebcXOcYxnPwnmdXqPmYmybe2aVZz42/xeKdvWrll5R7V9i/SY4/slvK9Ir2yJ1TK/72y9R7Xd01M5+XeeyfwOjJ+b57vOYB7XU/9qvhtL9NyBJfpK/Pyli8e26ptrWp2VbHbdyGuqWNxkFiYsXaamR8fol7Xf1zOOdnCuTrt49fta++X/rJ9+M0kvPKfvRPXON6Jq/ee79MCPWZ0WAAAAGAr0xBsKSxu11g7oaiqKVFNRpO3HpPJV7Zq/1Kh7z3Ituuctba8oUk3FBjX3lmiWc66l+BCx2GuDmv0y1crdWm4c82BbiWaZk7xX7tbyptUq11H7mEWqqdgkPWYds2tNqb2tXmH7B2zi2EW+AZ6cdWq79bVttc4jDpOQRheZ23wUVql02QR9sNnqrXe6Oaq8KvcQy1Era+yAI9arr0GRwiqV1j3o3JO1mEBVoSINid5/Lacmu3v/xYZUznlJHVHHdkN23Xxpl2M/DWFllT8xoCHBac215phfL/Y63RyVoid0zhlIzVigCZNPOeq9pI5ooYrjc9+9rg7n+xVWm2u/jmAszTn9Rq2sUakdasX20xYuVLFnKGxI45dt1J2Rl+x6DYqE7tUk4z5p4WTlKazendKV42fVF5qgkGM/F0+FJRUqx+y1uXCy8hRVx8FEAJfWfUrznqfnQY1fIJ1ztGlbOKTxy8y2kKQJKkjxbKfH7tl6oSF+zNPNSnLMVKy5NmflOb5/ao9K01Zrred7Y4oeWzVFrbWx79CoCh9t0cz4Qgyr9Irru7FIB9vce7DUan7TapVH6uP1rO9j575kB33tWjRNaraPWVNRpFc116rn+C4+2GaHds7j+wR4g/Xd+N1tj0tb7Lns7Pnssqct0T+tLzGrDqJP9F/+zz9K7bekDvAk6ce3qFVSyed9Y3gAAAAAg4AQb9BVa2ZlidRW7wq8utZsUnOvVFjpngw9V285em/s0KHGVilnuirNsC+FssemK7f3qF51HPPk4nqFVaKvORaniNVz91TZoUOLzZ4raSgZp1xF1fpzR7DXOE+bPD0EU/kLrdvToIaGJK8965TJVEtX6o4oIimvKp0VT909iqz3OodYPqix5SH1Nb/i6HX0ujoawlLhfYkQY8YC3Vno09Np54v+PZ9SuLjS6OW0s0EdUSlr4tQUK44OkhkLVFAudewyerEd3qWzrl5kZxQ5kiT0GhSx9n/J1Y4XVzYoopDGzzICunCDoxfc6+oNSxqT72ozayjtKStMPHxcH5hDaneesp6fyUZIO7lQip5V1HFfrv19el0dRs/CiwdPqM/1zNpC0gc+z7anzVIYtfI+5SmsNsd9v1L3ijqime8rf/1MFapVB53fP43z9OqxqFQ80x2q5Uitjt5yXWsOKayQyh/LLAiLH9PxvWR9Hxv7WjpX5TneHnpdayp9e+z1a9C+Gy0/WuzuLactr+mXvVL2PV+W3xq0g+IvLuvzIan19+k+yaPU3C7p9o8ZUgsAAAAMEUK8wVb5gEpypJ5uc5jTDp38Q1TKGac7HVt7/vCmOzxr7VaPpNzxmawKW6spxT77UqsivVLuuFhvjWT1Bqi1Wz0K+fRoydS/ad3jVaqqSvJ6fJ36mY7Jh9UbzOoJVqhie2EL3/nwjFBGCutyVMrKswfp2b2vPjhuDGNtf199jt5+o6ZOUJbdu2tonNGlC+a2oTJReQvuVVb4SHrDJdvfT97D72otnKw8SX3vmcOI/QO6yKl+hqlKkh5UTqGzntWu7tDtdZ1vjkqFkx0BsPW+vjPH/Yf7xl3L+2Q73OXf/kmebbPN+jdRoYmhROgZZ19nRvuqVtk9Iam3W51GSdfP31KPQspzdizrfUsnXeGZ9X2mvM9msCqsfcy2E8Yw1h3qirj3VVZW4nPMARq078ZkWvU/h3o2ieKPFdKn9Z5v70Z/Z89/Wgp9LGsQLQAAAIDBRog3RHo6HD0wXMYpv78fdY3vqMfclkrlZ5UrKXfaaq1tane8nHNAJeolP7cMNc7Tpop6q3fMqtgxjeG7w+hK3drEsMpYzzxzaGUKo+4YEx+m6VzpttSYP25UXkiKvp8i4MnAjAWa4DzeXve8dkNp1Mr5Gh9y97xyyq7rvy0GX1SX281tttDtGYRIiVDWub+Lp8JS6F6NdYS8V46fVZ+zd6E9BLfTnJNwGO7TqJU17vbvdw5Cp4EEjIUaHbKHnQ/WdUbeSfofEfr/jxd28JaREuXlSCqea3w3uufkk6qVn9f/uWVksL8bKx/XPzW9oCbH6zHX+QMAAAC4ERDiXXPd6uqvp8dAgjY7+DPnr4u/YkO47Hr9/1DOlGNeqn2tknzm4UtpcIfTelk989rCcg+BTcOV9y7YQ26d87olXrEhnlci0cwDpWRiCxeEE3OQWXOfmRWHwIwFKigPKdJgLupgsRZ9MNqjv7n2hlqGwWn25EJvKGsvOuEaPnv4uD6IJra5huDGDMN9shZtCbnnXbRD6tQm6pYxki50ZdBmdu894xrjL8+iIVen/++9gQRtdu+9tsR8eK6XYyoDs2fe1RuM70Y7wFtVpuy21xJz4lU8pVcz6CEHAAAA4PpAiDfYGt9Ua69UWGbO25RsWJdb/v1TlKuoIuZo3H6Zw2aTsevd80AaP1TT3afDlkr7x2qK3oYegz2c9irMmKrPhBzDLY1hs8lYYd/gzAtnDc11L6BwbcSG0TYkmcfPGlKqNIfZWm0yRrdkEJp67DxlzFEYk+7wVif7Pc2xhS+M4M01fNae669wsrI9Q3At1/4+2UNboyd03vf+pGA/232RTFLGzIfNLvz7/dq/f792rbrPKLGnFCi+1xNkWd97rXorvvKsj6RTFfQn/XCuszsq5UxRWRrfXVZd99QI/Urx3Zi8zaSK+0uUrQ/1y1f7WWl2KLTdrKj+qDsy6PE3YewfpejNOmsWAAAAABgUhHiDzl6coniuayXa/PXLrUnTX+1nYvPK3XpsWkg9xzZlOJF64pjLHYtYeCUWzljkWiWxWjO3uRfciP/4NSebd8hf3+JZbbesrCR1b8Mhll3ns2qmvfBE/wGUHWI5Q5LDu9QZVupVPe0FDTz1Fj7pPxdfP6zwyxlcTVTejqsYvpimVMNo472ynGHXwieTD6e1A9BMFz9ws+anyyqf72rX7Loq/+Gt/Uk2v2GyFWl3nlJEhcqpm6w8n+Ds2t8nO1BzrqY7Y4EmpDWcNvFsu1YbTsPFgyfU57fKr6+F+rx9/bd+bobMSMpanKJEs5zfP/Hvvfp+/gNHtWYu9S7ek46Trx5Vj+c7zyu+cMYqd2+5/PWNnu/Aro5uyVg0yCmz78b+26yp44Kk2zT5/th/UCnRcweuwXDafxut30czWW32isqLJL1/s7aZRQAAAAAGxacKCgr+ZG6MKSoq0oULF9Tb22sWDavZs2fryJEjikTSG0Q2LJY2au2jzl5srTpYUen6kVq2zZyXSQrvK9Ir/fVGUbVmHlit8kh9YphsTOVuLV81Xbmujd7VFr31fOpIiWM55tXrObbBtequ5xo8K98Oh4nK2/GExofcW82VY62hoc4a9rBBnxArNozRJXpCp43hhJ59GvvzlDs4z888XqRhhXonb1TxmMQxzTpOfc0v2au0PqjxSUOesNrm2MNmY0NDzSoyr9PYX/SETu+SCpbdqz5zZV7ZIZ89XNWSOGZ652/x1DXb3j5/8xyy6xJtNsrxv72xhH1dSe6XeT4x5nn53af07nma98nzbIfVNueUcvZWKct5jp529z6L6d9zJT0/8zMlu1fZNwqlj379Qy2oPeIulCTVan7TXLmeCvN7z/P9aQ+JNb/zDGXb2jUrz+87yHtM+R03je+8mPz1LVo0zfFMGt99mXw3pmqzivXP6plpt8X/bt33lE6WvaDH8k7quYf3qEnSd7clD/Za9z2lJVscQ3PNCpLUa+1r4tKl2vzfNkuSFq9+X2u//J/102+G9JRZ3/SdqN75xv/Sv794u771b9Ky/3uZJn7OWuLiyb/5W7M2AAAAgAEgxBtx+gnxkBFnwOMNdQCMNMlDPKRrqSPEk67ozX/qVkn7OH32b/obUP2JfvpKp776fqIeIR4AAAAw+BhOO9IMaF4oALje1WpKcaYLX6B/o/T//dWnpaJuvfkdsyxh8eoefTX0af37f+8v6AMAAABwtQjxAs6cj6nssenKVat+4TO8CwBuGEsbjXlHZ6pQKeYdRca2bbhdP22XSr7xvn7qt0z4d6Ja++U/qvWfrWG0AAAAAIYOIV7Ada2pl5a2a22T9ZpV7J1bDwBuOFsq9VZZ4rtx0TQlmdsTV+upv7lT/x79oz7/1U+Mkk/007+IKvqrO/XAj40iAAAAAIOOOfEAAIDkmRNv4JgTDwAAABh8aYV4V64Ea9r/hx56SL/61a904cIFswgAAAzQX/3VX2nHnqufrqH68ep4iPfM/7PaLAYAAAAwAIR4AABAskO8wUKIBwAAAAyulCFeZ2enLl26ZBYNK4bTAgAAAAAA4EbCwhYAAAAAAABAwBHiAQAAAAAAAAFHiAcAAAAAAAAEHCEeAAAAAAAAEHCEeAAAAAAAAEDAEeIBAAAAAAAAAUeIBwAAAAAAAAQcIR4AAAAAAAAQcIR4AAAAAAAAQMAR4gEAAAAAAAABR4gHAAAAAAAABBwhHgAAAAAAABBwhHgAAAAAAABAwBHiAQAAAAAAAAFHiAcAAAAAAAAEHCEeAAAAAAAAEHCEeAAAAAAAAEDAEeIBAAAAAAAAAUeIBwAAAAAAAAQcIR4AAAAAAAAQcIR4AAAAAAAAQMAR4gEAAAAAAAABR4gHAAAAAAAABBwhHgAAAAAAABBwhHgAAAAAAABAwBHiAQAAAAAAAAFHiIdr4vmXzyn8muP18mWzihatO++uU/+RFpmVAAAAAAAAbkCEeLh2evO04aECFT5UoMLvjTZLtX3dWKvsoQLVv22WAgAAAAAA3LgI8QAAAAAAAICAI8QDAAAAAAAAAo4QbygsbdTaphbNrJTKtrVrbVPs1agy37qOOttqzRqSzP20a/n6am/5tlqpcreWO+rNX+qqBgAAAAAAgBGIEG/IhFS+ql2zVK+aiiLVVGxQc2+JZh3YrXy7Rv76Fq19dJyaa4vsOvUKF8/1BHll29o1q7hVByti9Yr0i3HLNbPSVU0qnqu1q6ao1d7f9mNRFT5qhYkAAAAAAAAYuQjxhlDPsQ2qWbzK/muHTv4hKuWM052SpFpVTgup59gmHWqMvWOVXtnXKhXPdARv1crPk9R2QidjmySdXFzqeF9MVM21ie1daw4prJBK7nf32uvfX2jdngY1NCR57VmnvzDfAgAAAAAAgCFFiDeEejp2uP7uWlOqmopKK4xbeq8KFVXrz9111NqtHoWUVxLbsENdEbuXXZKhtnG9b+mkK9hrVaRXyh0X31ka/k3rHq9SVVWS1+Pr9G/mWwAAAAAAADCkCPGGSf74cfEht6458VZNV65R9+Ria2isiucmnRMPAAAAAAAA1y9CvGHS1dFtD39NzHPnfL2yxai/ptQxt56UO231EAV5DKcFAAAAAAAIGkK84eIZNpuuHTr0sB3kpRomW/mASnKk8MnYvHzpYDgtAAAAAABA0BDiDZfGefpFm9JYPbZW8x0r2kqJcK6nu9W51VCtmUunK7f3qBqNXn0AAAAAAAAYWQjxhpE115288+K5QrtVemWL9Jgxb17PviJtWmMsipEzXYvi9VarPFKvmofnqctdCwAAAAAAACPMpwoKCv5kbowpKipSZ2enLl26ZBYNq9mzZ+vIkSOKRCJm0Q2rbFu7ZuUd1faAhnbPv3xOc2/P04a5t2q7Wegj0/oAAAAAAADXM3riAQAAAAAAAAFHiAcAAAAAAAAEHCEerp2ciFa/dk7h184p/PJls1SL1p23yl47p7l3m6UAAAAAAAA3LubEAwAAAAAAAAKOnngAAAAAAABAwBHiAQAAAAAAAAFHiAcAAAAAAAAEHCEeAAAAAAAAEHCEeAAAAAAAAEDAEeIBAAAAAAAAAUeIBwAAAAAAAAQcIR4AAAAAAAAQcIR4AAAAAAAAQMAR4gEAAAAAAAABR4gHAAAAAAAABBwhHgAAAAAAABBwhHgAAAAAAABAwBHiAQAAAAAAAAFHiAcAAAAAAAAEHCEeAAAAAAAAEHCEeAAAAAAAAEDAEeIBAAAAAAAAAUeIBwAAAAAAAAQcIR4AAAAAAAAQcIR4AAAAAAAAQMAR4gEAAAAAAAABR4gHAAAAAAAABBwhHgAAAAAAABBwhHgAAAAAAABAwBHiAQAAAAAAAAFHiAcAAAAAAAAEHCEeAAAAAAAAEHCEeAAAAAAAAEDAEeIBAAAAAAAAAUeIN9TG/q12LNmpPfHXFq0ca1YKlvz1LVrb1Kgys6Bf1Zp5oF1rm9o1f6lZFnBLl6mp6QU1HXhcFWbZcKjcreUDaMeybVb7L19fbRYBAAAAAIARjhBvKI39W+14uFRZ7x7S41sX2q+lqjtvVkQmBhYyYtAMMGQEAAAAAAADR4g3hKZPnKAs9em3v/qpWXQd2qFDDxeppqJIr2wxywJuy2ZVVDyliof3qMksG0FOLrbaf9OaHWYRAAAAAAAY4Qjxhtx5ddDzDgAAAAAAAFfhUwUFBX8yN8YUFRWps7NTly5dMouG1ezZs3XkyBFFIhGzKFCmf3WLlk05r4atz2q3WWiz6mQlNrx7SI83OHvufUvPLZmpcW/9SNUXZmrPjIJ4SfjwQj1z2lE1TfnrW7RoWiixoa1eNYtXGeXdOlhxQlOa5qrQ3t5zbIOrl1fZtnbNKo7/aYuqubZUhxrdW81jmvuKW9qotY+WJP6On1ut5jvOxatVBysqddLc3J+ly9T0aKI91faaKhabffEqtLXpIWnfU9o7/lk9M+02e/s5vVqxWT8yaqelcreWr5qu3PgG49zt8p59RXqrzNHGvUe1/eF56rL/NNs0JrzPpzdk0nY1me2cODf/+51gHtdzfkmPuVA/2P8NFUV/ox9+e4OOmMUAAAAAAIAQb9BN+r4raPOIh3TTtPLx7+qLt51zhHxWYFf4YYs27/kHHXVukyQl6lrhn/TbA5nMsVetmQdWqzzHGRrZoY0jIMpf36JF90g9OSH1xIIZOwQygxqXpY1a++g4T4hnhT+OY9ohlZKEgq5jLG3UfFX6hEPdmYd2SZXouQNL9JVI8hCvRM6Qz66vk3ouwyG4sWDLeY3WdTvCz8rdWr5qitQbUm7ECDGTBmHu8M/bXnLclyT7igV9ru21mr9NesVZL8lxnLzHtLZVdpR63/PtH2j/rCJJH+k3/7hAG35ulAMAAAAAAIbTDrrTz8YXsdj8Vp8dvMUWtViY6GU3aaa+eFuffnvA2Uvvp3rm8DnptlLNmpTYpSTpwxZtdvToO3rmrPqUpdw8o15/ls5VeU5UzbXO8GuVXtnXKuVMV6VzoQJngCdJW+rV3CsVVu5WvqNaSpW79bViKbzPcczGeXr1WFS50+YmFqeI1zOCoS3uAG/Y9J7Uc/GAr1VNf/hQyhmjCUa1/tWqclpIPcc2uK7p5OJ6hRVS+WO1jrrOAE+SVqnxWFQqnqmZlY5qKcWOuckRrNr33LWvas2sNAM8u26y0LAfd44LSb1v6aQjzO1a4xPgSdJPfq92SYr+Dx0mwAMAAAAAwBch3jCZd3eB/3x5p/+gsKRxY6a5t/f+h90zz3b+H1S9NbPhtGVlJZK61WUMddWWEwpLyh1f7djYqrdcgcsOdUUk5YzTnc7NKeTfP0W5nn1JXR3dksYp3w6RktULiot/+FVGPe58Lb1XhZJ6OsxhxKv0VpukvM+6AtLwSXd4ZrVZSHmOUbEpLb1XhYqq9efGMVu71ePcV+UDKsnxHnOgOrujUs50LTqQTui7U3/3yCN6hKG0AAAAAAAkRYg3nD7ssXog+cjK7WdI7tXo7Vanuc2WO67/dKizO2puSunOcSFJJZrV1K61zpdzfrZ4z63k53b9iCrSam6zpQpIW7vVY25LIX/8OEkhla8y2t81J5+kknHK7e/cMtS1plQ1dg/PRbFjbnP2NAQAAAAAAJkgxAuovp5z5qYh19Pdf4IzkKDNCv5adbCiSDWeV2K+NKvnVooQ63qXqm0HELRZvfeiaq412956xYe3mj3zBsOWyvhxDrZJKp5LkAcAAAAAwAAR4g2T3W+fk26boK+NNQom3aNC9enMmWNGwdU7ebJVypmiMnNOtWRDLl1qNaVYUuSd+Oqo6TCHzSZj1SvRFOe8fEmku8/A2XJCYYVUcr9z2LLibdvzhzf7bdukw6H7k2441/iOeiQVlqURstl13cOv+3dysR3kGUOGLQv1g/37tf8nq3WfWQQAAAAAACRCvGF0+pB++2GWvlj5t5oe3/gtPTejQHr35xmsOJuBLfVq7g2pfKlznrJazX+0RGo75FpR1lS2ba4K1aqDmS5yEDvmqsbEIhZ+YgtnPNriXrhhaaPmm8GeHUy5F4IYCazFKXKnLXddY6xtf+FYqddjaaO9cm+GK/I2ztMv2nza1SO2cMZcLV/vDOdqNd/Te65VkV65FyZxqdbMA+b97icE/vbnVSRJoc9pxv1mIQAAAAAAkKRPFRQU/MncGFNUVKTOzk5dunTJLBpWs2fP1pEjRxSJRMyiQJn+1S1aNuW8GhyryrpN08rHv6sv3pbY0vfWj1T9785eeN/Sc0tmqvDdQ4mVba9KtWYeWK3ynMSWnmMbtMkZIFXu1nJzzrTeo9r+8DxvAOO0tFFrHx2n5trEMNmYsm3tmlXs3uZdCdWnnk8dKXYsZ/eyVh2syCzg+u62F/SYeU621n1PackWSarQ1qaHlH9sq765JjGOtWL9s3pm2gW9WrFZP3K+MQ3561u0aFooscHTtt57ZA2J9bari33fXKsK2zzHlN9xM2nXWs1vmqtCxxb3ysLecs9zFrdQP9j/DRVFf6MfsrgFAAAAAAC+CPEwePoJ8XAN9BPiAQAAAACAkY3htBg0A5qzDYMm//4pGS98AQAAAAAARgZCPAyQMVda5W59rVjqOVbvM/QSg69aM7e55zasnBZKObchAAAAAAAYmRhOi4Ez5k9LPucZhoQ5d2Gy+QMBAAAAAMCIR4gHAAAAAAAABBzDaQEAAAAAAICAI8QDAAAAAAAAAo4Qb5AVFRXplltuMTcDAAAAAAAAA0aIBwAAAAAAAAQcIR4AAAAAAAAQcIR4AAAAAAAAQMAR4sEjf32L1jY1qsws6Fe1Zh5o19qmds1fapbBY2mj1ja1a+2B3co3y9JVuVvLm6w2T2dfZdusesvXV5tFCJDsuo0q3btRE1ZONIvSt/BJle619lO6d6NK6x40azhMVN4Oq974hWbZMItdx44FGmWWXUe4534u643XzumNJeb21K6Lf8OW9Cr8Wq+eN7cDAADghkaIhxFnYD/QrkON87Spokg1FUU62GYW4oa280W1zFmhljkvqSNqFg6/7LrrP5i75gJ+zzPzifbUd6mkN0/1W82ykS+tf8O2Zutob4/m1n+kRWYZAAAAblifKigo+JO5MaaoqEidnZ26dOmSWTSsZs+erSNHjigSiZhFwy6obZaJ/PUtWjStWwcrKnXSLAyAoJ/fcCjb1q5ZeUe1/eF56jIL4TZjgSYsu1dZ8Q1RdWxeq8hhV63rxETl7XhC4y80qGXl62bhsMmu26jiMSd0unqXrpiFwyi7bqOKCx0bwsFqt/QE855n4vmXz2nu3bmqfyhHT5uFaQj6vxHpn99lvfFal0rezlfh90abhQAAALgB0RMPwI1j4ZMqXXav1PyS3WtphVrmvCIteFLZZl3cQKzhpcWFYbXFn4sVajk1+eqGuCJzFR9p5t1S688GFuBdX0br6z/Lle7uGtCwYgAAAFx/6Ik3yILaZk5WL4BQYkNbvWoWrzLKu3Ww4oSmNM1VrGNKz7EN2rRmR7xe2bZ2zSqO/2mLqrm2VIca3VvNY5r7ilvaqLWPliT+jp9breY7zsWrNY1eDT4qd2v5qunKjW9Isp+k5+UsH6fm2lJ1PeZsF2N/qfYTV62ZB1arPCexJWmbpeiJZ96n8L4ivbLFWcOvHRK8xzXvhdlm9rlH6lXz6mdd+/Xu61qyeygpVQ+wBzV+b5XUsELn76jRpPLYcxtW25wXddGoPWqls47U1/ySztadcdVRGvXMXmCRhhXq2Jn4Oy6jnoT99cqyy+Kn5L8f87wTvPXNa3D1ZPOctyHquC8Ln1RplWNH/fSI85yfUXfUyhpNmnhWp6u7NHZvlfLs7a72t4+XtM0N5jHNe2mVX1DbnAbd4mxj5zX6tFfS43vaztv2Cdf2nqe+V9bnKav5JZ19r8pV1+96n3/5nObenqcNc2/VdndRnPnvifk9en39G/aJ9tS/q+nqv00AAABwYyDEG2RBbTNLLBhy/liwf1j0JgKg/PUtWnSP1JMTUk8s8LF/mPgGQDGOIMv5A8j6oeQ4ph0YKckPKtcxljZqvipdx0x/KFIKfudRuVvLH3tHmzw/COW4LrvNnD8cnT/c4tvt9pZfuOYIunxCvLJtLcp/1dGO9v6T/XDsL8SLs683fk9TsJ6Dt9z79Gkzz/11BZCOH8TpPENDKhZg+IdxCVbokCdn6OIfAFohjGN/dtgiV6gTO647ABm18kmFjr/oCVBi++jzCTikBzV+R77Oe87BJ1yRUgQ6DgufVGnVmCT7MFn7/MwZb3A19r21iXOOBU+eUCeT4bT9nb/f/bTvnSMsSwRSjjYyQzv7bzOM85POPXeGYIl92ufm0x4j+Z5PKpdjH37X6Pg8OYJw73sVHz467vhd+sK6m2IbHW7Mf8MWrTuv1VOloy+M1eNNZikAAABuJAynvZEsnavynKiaa50/HFbplX2tUs50VTpX5HP++JGkLfVq7pUKK/tfAdWjcre+ViyF9zmO2ThPrx6LKnfa3MTE3vF6xg+sLe4fP4OqZJxyFVXrzx2hWOM8V4An1apyWkg9xzY5ftTZbVY8UzMrHVXt3hmJUG6HTv4hKuWM053uaimdXGz0BLHbP/eeBzJr/4Gq3K3HpknNW9yhYNlj05Xbe1SvOn64nlxcr7BK9DXPqretOljhuI4tJxSWlDverNef7+gfGxrUkOy16TvmG/pxRpEjYUmFKk65eqfZa8p+b2iCQjPs8hkLdGehFGlwBIKHd+lcc1RZ5VWJ4bkLqzwBniRdqfMJ8FJ6XR1G8HXx4An1KaTPTL02wz5HrZyv8Tqhc0bYdaXOEeDJaovOsKTCyUMzVDners5A9nV1NISl0L0aa6y6GmlwtP/OU4pIyrrDbrOdDeqISlnlT6h0b43yYvfYlO49t0UaVjhCr9fVG5Y0Jj/DBT2Ces8f1NjykPqaX3E8x3b7F97nbcPoCZ12hOdXjp9Vn0IaXeSos+SSSpSlt474BXg37r9h249kKao+jXN08AMAAMCNiRDvBlJWViKpW13GMCH/cKVVb7l+eOxQV0QZB1L5909RrmdfUldHt6RxyrdDsGT1hlRrt3oUUvmqFk8YF7f0XhWaQZ8S780zflT1dLjrda0pVU2avS36Z7f/NVGtmUunK7ftkDGkrFZTiqWeP7xp9PZrVaRXyjV/YfZ2q9O1YZVeqSjy7UmY3I/111VVqkr2Wv5j8w392/liYvXOwiqV7t2o0r3+8+H1nTnu7iXW/r4rdBg1dYKyFFav0XPqynsXJI3RLXaIkT25UIqeVTTjwC5Nh7vUZ24bKjMWqKA8pMiRVD3oLFciQ7dMavbkQkkXdMlsVzOgkySf++R2RpHqFWppCEsKafyyjSrdu9EzH16699wS1eV259/SxZUr1JKy92EagnDPF05WnqL64LjRc9H4nMRd6HK///AunZ3j7nm46M4rkkbpnSS9zW7Yf8Oabla3pHF3fmKWAAAA4AZDiHej8QQrCZ4QxtDZnfkP8jvHhSSVaFZTu9Y6X845g2L1+jm3IdE4T5sq6hVWSOWrYufWmOhZISl//DjJVW6/kswfN2gqd2u50WbeuZuGRv765dZwNXOYb+VnlSspd9pqd1s0uefuCz47sJkTC22snnnjjZ5bqYzKCyV69TlfzvnBNFG3jPEJMK7CqJU17uM55nkbWhOVt8AaHusd8il72KS7LfznVRtE0feTtmtWXvLZx5La+aK9qIUV9GaVP6HSHQviPefSu+eDL4j3fNQdY1yBZ/zV37yHg6GffyduuH/DAAAAcMMhxENcT3erucllID9SrB9NrTpYUaQazysx1LKze2DDTq+e1TuspqJINfta7R9riSDP6m0RVXOtee7W62qHSfmKLTLRVu861sE2s+IQqNytx6aF3EPHYhrfUU9syLBPW/jN7Xf1BnM4rY+dL6plToMikvLuS4Q16bB6mRmrmcZfsaGbZ3TpwkCGUPqLzbUWaXAeyzr/oTZq5Xxr/jnfedYcc9E52uF0c+ahyWDpi4TNTRmwgt7TzVHX0Nz07vngCuo9t3ofRtWx2WwH62WGftfCjflvGAAAAG4khHg3kJMnW6WcKSozh44mGzLqYg2lVOSd5Asn+DCHHCVj1SvRFOecRkmku8+Mbam0gzzHvpMMmx1K1rCsqJpfHYpQrD+xYbT1ScLJJMNmh9QgD6e9CuZQSv8hlF5XIlH3XHoDNlGhiSEpekLnr3VAEhtS6ZwLzmnhZOVJ3iGXSVhtcvtVBZsXTxlzFMYkG+Y5CNK954MnwPc82bDZq7C9c5SkK/pshVliuWH/Dav4WOMkdXcmmSsQAAAANwxCvBvJlno194ZUvtQ5sXet5j9aInnmP3Mr2zZXhfIZYplK7Jir3MNUPWKTjj9qzE+3tFHzzR9FsbnsHqs1CjKTv77Fs2/PnEuN8/SLNp/zGkLWD7yQSu6Pze9UrZkHhn44bdJhtHE7dKixVSqeq+WeRSxGggc13jE0MmbUyvtSB1B2oNHX3JAINHY2qCMa0vhl/nPqxVypO6KIvPVGrXzSO/l/v+xefcbiGhOGfGhl8iGVce3vq09S3uTEYiHZdcmH01phWKHuNOacy0is/Rc47+mDGl9VKIWPZNQrbtTKGp/h1NbCDa4ALc17PngCfM/thUvyqvpZCCRTW29Rq/o05b4kc7/doP+GLbqvTyFlKUVHQwAAANwAPlVQUPAnc2NMUVGROjs7denSJbNoWM2ePVtHjhxRJHItBhRlJqhtllCtmQfcc5j1HNvgXmwgNpwzsUXqPartD7tXKvVY2qi1j45Tc62xsqqksm0+IVRbvWcIpqeeTx0pdixnj7BWHRzAAhKe4yW5zvz1LVo0zQgknHXt8/GsTGjwHM/B+V7zeOF9RXqrrF2z8hLHNOs4Je5preY3zZX/jF2ONvO75zFmm/jWjTruu/2Myb8th9WMBZrgmbMrrDbHqpnxoaGuOtZKo36BRnbdRhWbDRxuUItrCOJE5e14QuMdt6uv+SXHyqX+x7Q4z8/cT1htc04pZ2+Vshz78z0nW/w6fNvC5liZNzac04/rGhY+6Zobrq/5JZ3TfE0qv2C0r8WzX8cx0zp/yac9zHaNHcc8B6u9U7WZua8Yv7rOe24dU54Vid2ug3uerK5rZWf7Oj2fCX/Pv3xOc2/P04a5t2q7WSjdgP+GfaI99e9q+vv5KvzeaLMQAAAANxhCvEEW1Da7Jvr5AQSMHN6AB8A1UvGRfvdURDp+l76w7hoPHw3iv2FLehWefUVHXxirx5Os2gsAAIAbB8NpMWg8Q1EBAMhE06069LYUmnpBe5LMjTdUgvdv2GW9MbtHejtEgAcAAACJEA8DV6v52xzz+VTu1teKpZ5j9T7DgQAASM/T37tLR3v7NP2pXj1vFg6aoP8b9on21HeppDdPGxhGCwAAABvDaQdZUNtsSBhz+njmJRoGnvmIfDnnbwNMDKcFht9lvfFal/SzAn19q1k2SAL4b1jckl6FZ0v1D+XoabMMAAAANyxCvEEW1DYDAAAAAADAyMVwWgAAAAAAACDgCPEAAAAAAACAgCPEAwAAAAAAAAKOEA8AAAAAAAAIOEI8AAAAAAAAIOAI8YDhtnSZmpqe1XOVZkHConXnFa7/SIvMgpRqNb+pXcvXV5sF/VvaqLVN7Vp7YLfyzTIYqjXzQLvWNrVr/lKzLH1l26x9xF797qtyt5Y3tWttU6PKzLIRx26/bbVmwTX2ifbUn9Pv1n1iFgAAAABAIBDiAUG3pFerp/ap9V9v1XazbMQbYMh4HTq5uEg1FUWqqT2qHrMQSeWvbxmkMPMmPf6vuQpNfVdvLDHLAAAAAGD4EeIBQVbxkX43u0fR43fp61vNwiG0pdIKlB6epy6zDIYdOvSwFcC9ssUsGyKN87Spokg1FZU6aZZh4LbmaMPxLJXMPq89FWYhAAAAAAwvQjwgwJ5/JKJQb542rbvJLAIwBLavG6OjvX2avnggw9cBAAAAYOh8qqCg4E/mxpiioiJ1dnbq0qVLZtGwmj17to4cOaJIJGIWDbugtpmlWjMPrFZ5pF41r35Wy1dNV65d0nNsgzat2eGtmxP7O6rm2lIdanRUkT03l2M/UqsOOnsHVe7W8lVT1Fpbqq7H2jWr2N7ee1TbB9jL67vbXtBjsf1IUttrqljclPi78nH906oSnar9vv7nY466vSf13MN7FKv53W0v6DG9popX79A/rSpTtr29dd9TWmL2qFq6TE2PFiT+No5Zsf5ZPXNPq557+D3NaXpIJfb2i8e26ptrWuP1pNj5JY5n+VC/rP2+nnG2b8VH+t1TEXX/rKCfXni1mt80V4Xxv837ZJXnHtugV7Vci6aF7O1+98l5H21t9apZvMrYaB7T2Fdc8mcof32L41y8vM9jesq2OZ6xpPtJfl6u8pSfk1T7cVjaqLWPxp4K9dNmiXvRs8+nZ595n5J8jsx2SPAe17wXnjZb2qi1j45Ts/kZ9tlXunzPz3zW+m0z8xk0pXq++7lXsoawh2f3qLXfzx4AAAAAXFv0xLsRFc/V2lVT1Fprz8G1r1W501Y7JtKv1fwmO8SosOpsPyaVr2rRTOfiC/YPYx3bEK9XU9utr3kmqA+pfFW7Zim2v3qFc6ZrkadeahXrn1XZyadUUWG/ak/qYvFDatpmjn27TV9ZZYd0FU+pouI1teaU6RmzXvFDalpVolO11v6eO/ahSh51LzJRsf5ZNT06Rr+061RUvKZWv2PmlOmZpq/q/Vi9feeUPW2JtjoXKFi6TE2rytS1z3EN+845KiQsuq9PIeXqRLIQYWmj1toBnfs++SyKcM9yLbrnLW2vKFJNxQY195ZolnPRivjwzNhrg5p73buQYgsquI95sK1Es8w5ySp3a3nTapXrqH3MItVUbJIes47ZtaY08SzYwVHi2EU+wVtqVjDUqoOO/fxi3HL3M5vus610PieJYbQ1+4yg1qlyt5aXnTDa1qfN0uG4TwfbzMKE+Px68ZfVzuF97tCtbFu7Fk3rTrRZ7VFp2mqfOQrNz7DPM5QWaxGLWXnO58LnWUvZZqv0Svz+Re3Qznm9zuus1fyl0quO8oNtIf97HrP1FrVKKim9bJYAAAAAwLAhxLshtepghaMXypYTCkvKHW/9cM9fP1OFatVBR6+YrjWb1NwbUvljjuCtZJxyFVXrzx2BS+M8bfL03DJ72axS47GoVHxvxiFG05rvu3vJNe7RoTZJxZP0Xcdmyewt16S9xz70qefuAde05t/Vqts0+f5YD6AKzZl2my4e2+PoJdekJfvOScVf9awo27rP0Ztuy2m1SsofH9tXiZ6rLJDaXvP29PP4RA9M6pPevkVPm0WSFYZUlkht9a7Ay7pPUmGlO1zJ1VuOHls7dKixVcqZrkoz7Euh7LHpyu09qlcdxzy5uF5hlehrjuAnVs/dS2yHDi329hobHNXKz5PUdsIVUp1c7O5tlfazLaX8nKTN85mw218lmpJh+w9U2ba5Kmyrd/fsq9ytrxUbwV7jPL16LKrcaXM9n82eYxscn+EdOvmHqJQzTnca9fq1dK7Kc6Jq3pLiORjUNlulV4zeiidfPaoehVRyf7J7OVon3pZ0+8cMqQUAAAAQGIR4N6LebnW6Nli9WqwwqFpl94Q8YYi0Q10RSXmfTYRDrd3qUYoeLbbwSXew19XRLWmc8lO8Lx1nuz80N0mSWk86hthKauq4IGmM/g/nMXtb1eQaUndO7/dK2ePsobNLJ6lEH+rUz42eVq0XdFG36XbnaD+d08n+wrnKL2tyjve8/H2scTlStPtms8BS+YBKcqSebrMHmH+40vOHN92hSWu3ejIOpGo1pdhnX2pVpFfKHRdrjGT1hpL9fBbP1dqkPTwzeLaV6nNylez2vyaWNmpWcVTNr7o/g/n3T1GuWvWW8cwm+2z2dLiv2+pNmdlw2rKyEqn3LZ1MNoy1P4PZZo3vpNxXa3eWlPNxfGg8AAAAAAw3QjwYSpSXY4chTe2ul2cOq8Z52lRRr7A91M6qN4Ahghmp0NamF9TkeD0z7Taz0qCpGD8mPjTXecwmz5x2w8MMVhK8IYxLGiGGR+VnlSspd9pq49lwzguXqJf83IbGycX20ErHs+seFprBsz3Iyra5j7fWb/7BIVGr+Y+WqOfYJs/8b3eOC0kq0SyjLdzz0A2fwWyz/PUtxj3vbz49AAAAAAgmQjwYrF5VakvMGeZ6eSbRT8xNZc0LNsC5vtJSoa1ND6mk96Sei80nZ89jN1Ss3nsfOubDc79SD4sdLt3q6q+300CCNjv4M+evi79iwx/tepn18hscibn2rHnWcl3zu2X6bA8Oa66+qJpjc+tVWHPPZRyiDkDZtrkqNIY/x3R2+80lF3v1s+jDNTCYbRZbuCO8z3l91hyBAAAAADCSEOLBkGRoYTq2VNpBXopeYP0Nq7t/tXbt36/9+3+ghUaRNbRVam1MrDCbie+WFfgMnzWYQ159h80OUON76nLNkafEPHkeN6u7VwqN+9gssDS+qdZeqbDMHDqabMiomzWUMqqIORq3X+aw2WTsevc8kMYzlO4+M7VDhx62g7z4vq/i2R4wa2ix2g5d+1AsNow2yfxzyYbNXq2Ff79f+/fv165V95lFVnBozqO3dK67J2eGbdb/ddifh96jaswwcC8Z1yf13qyMPiIAAAAAMIQI8eBx8tWj6klj9dj89S2eVVDLykpS9wJb2qhZxVK40Rsu3Dftc7pVklSkz3/bKGy9oIuSSsoSq8J+d1uaw2mXLtNjxakCwBI9t7RM2b0ntTf2g99eOMNcsXZgmnSyTcqe9lB8cY3vbluir+hDXTRqSjfpzdNZ0t2X9LxZJCUm+i+e67oH+euXWwsHGPOfuVTu1mPTQr5DLPuXOKZ39VKnxMIZ7meoWjO3mauZxuaym5lyXsX+1Wq+uVKqz7yB6T7bg8fu/edcxGVp41UNDU1P8mG0cVvqrQU9Vg1mz9mF+rw9TvXWz82QGeN1/fwt9TgXQancreWPjlOPa3XaDNssNjenZ2ESJZ6vnCkqiz1f9grL/Q+nvax775b0/s3abhYBAAAAwDD5VEFBwZ/MjTFFRUXq7OzUpUuXzKJhNXv2bB05ckSRSMQsGnZBbTNLtWYeWK1ymauG+qnVfJ8fuuF9Ra4VLq1hb44K5oqklbu13PPjO6rm2iTD9e5frV1//SXdqnb98yN/p51m+dJlano00XPt4rGt+kc9rmemXdCrFZv1I0mqfFz/5Jmzzr0KrewA8DFzLjTXirYJFeuf9YaFvSf13MNWKGiVO85Big//zT+2Vd9cEwuSSvTcgSX6it3z6OKxrfrmz7+sf1pVolPG+aniI/3uqYi6f1agr291bHda2mjMYdaqg8ZiA5575HMfvexnJeJcVdiW7j311POpIyWO5eiN1XNsQ+YLSHiOl+w6Uz3baX5OfI4X5/ocGMfrPartW6THVk1XT/yY/udkSdzT2NBQP84287vnMWab+NZ1riZtP2Pm+5JZ+Pf79Y1C6aNf/1ALao+YxcYza12btrVrlpzPWjpt5tDv58B8vlp1sOKEpjTNVW6y52xJr8Kzr+joC2P1uPfrAAAAAACGBSHeIAtqmw0bO+jw/eE9VOwQr2tf/3PWfXfbC3osLxHEBdHzL5/T3LtzVf9Qjp42C4dUPyEecF37RHvq39X09/NV+L3RZiEAAAAADBuG0wIB9vT+PEXVo7kvXzaLhpbPUFTgRrBo3QVNz8nS0f0EeAAAAACChRAPCLKmW/WFn+VKd3fpd+s+MUsHTf76RtecdGWPTVeuWvULv6GGwPVqSa9WT+1T688YRgsAAAAgeAjxgKDbmqMNx7MUmnRJi8yyQdK1pl5a2q61TdZrVrF3br1rrnK3ltvn0+/rmi1SgevbJ9rzX3oUPX5X8jkoAQAAAGAYMSfeIAtqmwEAAAAAAGDkoiceAAAAAAAAEHCEeAAAAAAAAEDAEeINsvb2dobSAgAAAAAAYFAR4gEAAAAAAAABR4gHAAAAAAAABBwhHgAAAAAAABBwhHgAAAAAAABAwBHiAQAAAAAAAAFHiAcAAAAAAAAEHCEeAAAAAAAAEHCEeAAAAAAAAEDAEeIBAAAAAAAAAUeIBwAAAAAAAAQcIR4AAAAAAAAQcIR4AAAAAAAAQMAR4gEAAAAAAAABR4gHAAAAAAAABBwhHgAAAAAAABBwhHgAAAAAAABAwBHiAQAAAAAAAAFHiAcAAAAAAAAEHCEeAAAAAAAAEHCEeAAAAAAAAEDAEeIBAAAAAAAAAUeIBwAAAAAAAAQcIR4AAAAAAAAQcIR4AAAAAAAAQMAR4gEAAAAAAAABR4gHAAAAAAAABBwhHgAAAAAAABBwhHgAbmCfaE/9Of1u3SdmQWA9//I5hV++bG4GAAAAAFznCPFGiHlVO7Xn8b/VdLMAwIA9//K7mp6Tq0PrbjKLAuvp/XmK3t01ooJHAAAAAMDVI8QDRqhRK2tUunej8apR3gyzJvwsWndec+/O0tEXcvS0WRhkTbfqCz/LVWjqu3pjiVkIAAAAALheEeIBI1pYbXNWqGXOCrXMeUkd0ZDGLyPIS+2y5k7tU/T4GD3eZJaNAFtzVP+2VDK7V8+bZQAAAACA69KnCgoK/mRujCkqKlJnZ6cuXbpkFg2r2bNn68iRI4pEImZRMEz6vvbMGKvfHliqji/vVNVdsYJzatj6rHZ76hYk/n73kB5v+Kn1v8f+rXY8XKqsRKnbhy3avOcfdNQebluVk/hbSry/+/BCPXNakqZp5ePf1Rd7D+nxX/2Za999b/1I1f9+TJI0/atbtKzgrDbv+Q/NWjJThT510vegxu+tUlbzSzr7XpVKq2J7kyINK9Sx01l3ovJ2PKHxodjfUXVsXqvIYWcdqwfapPJ4JSncoJaVryf+nrFAE5ZN0Aeb1+rSrI0qjh0yekKnq3fpSqKmXfdeRxuH1TbnRV2M/22dvxpW6PwdzuOa9RJ18+J/+5+/t57fvlKz2uGC+70Ln1RpVaH6ml/S2bozicr29jizzWzZdY72kjz7ya7bqGI1qOVgvqvdvPcy9X0atbJGkyae1enqLo11tId5TCmd+2Qxj+m7L7sX3uqpo1T/kF8vvGrNPLBa5ZF61bz6WS1fNV25dknPsQ3atGaHq3b++hYtmpY4pl8dVe527Udq1cGKSp2M/12r+U1zpX1Fahzv3J9Zz6HiI/3uqYh0/C59YQQNBwYAAAAADAw98YZMlr748E5V6ZAe37pQj2/9kX77YYGqHPPaTf/qFjvsW2jXOaTwXTO1p+pbVoXz/6DqrVZZw7t2aGf//fjWhXrcGdhl4q6Z2vPwBJ2JHffwOWVN+a6em+Soc1upli25Xz391clAVvkTKq1SvNfY6eao8qqcPcYe1Pi9T2j8hQa7V9kKnW6Wp1eZFdJIHZtjvc9W6HTkPo1fmKhjCWn8MjtwmrNCLXMaFAndq0l1D8ZrjFpZo9Jl96qvIbGvtnChin2GpOZVbdSkvCOOHm+FKt6xQKPiNexgLpw4/5Y5RzR6gbOOHUbZoab7mE8q21nvKvW9lwiuRq2sUWnVGEebNShSWKVSR1soHuA5e/atUGfefE9bqLBKpcsm6AN7f957OVF5OzbaAaNxTFebSQrdq0l779Pl2Lk1hJVV/oT7ftoBnhxt1rL5fd3pc/6uY24+IZU/oQkrJ7rqSZ/ogUl90tu3+AR4DsVztXbVFLXWFqmmokg1+1qVO2215i9NVCnb1q5F07p1sMKuU3tUmrZay9dXJyrZAZ6ObbDqVBSpprZbX9tWm6hjK3y0XYvueUvbK4pUU7FBzb0lmnVgt/LNipLUdIve6pVCky5pkVkGAAAAALjuEOINob63fpToVadj+sW5Pum2XBVJkr6lWVOy1PfWLtWdj73jp3rm8Dnprvu1cmxs21A4p4atSxPHPf0HhSWNGzPNVSt8OHWdtEVP6LSj59SV42fVp5BGW42hUSvvU57CanP01LpS94o1PHSWI3jLC0nRs4o6erddqVvr6QUmmT2/Xtf55qhUONkOyx7U2PKQ+ppfcr334soGReQ+pmSff3xfZxQ9E5VCtycCqRn5ypIUOeXs3fa6Ooyef9mz7lVW9ITOOXqHWccs1J2esClTD2p8VaGksHrj1xS7zlccPQJfV0dDWCq8zxW83TJGUviUq3fbxZV+PQndPQyv1B1RRCF9Zqp9/gurND4UVcdmZ085+5ihezXWCFwjDY5j7DyliKSsOxxtUXS7shTVB8cdPeoO79JZo/flnYVSpMFxzMO7dK45qqzyKndAWnFJU3Kk1pbRzq0+WnWwolSHGu0/t5xQWFLueDugq9ytrxVL4X2OnnKN8/Tqsahyp81VWWxbyTjlKqrWnzt65zXO06bFqxJ/x/Qe1faH56lLkrRDhxpbpZwpKqs0K0rSTXrzdJaU87FKzCIAAAAAwHWHEG8IdV9wDz09+u9L9XhsOO2ke1SoPp05YwxPjfSoT1nKTYy1HHwf9qjdteGnembrQmOo7DmdOu3482pd6HIPYz28S2fnxIZgTlRoYsgTIElndOmCpDH58bDsSiRq9d4ye3T5cAdq0pX3Lkgao1tmSFo4WXlGjzXL6+oNu48pSX1njrvP33S4S312jz1vr8CYB5VT6LevsC5Hpaw8xzjWtBWqOL6oRawnoHN47WTlmQGYJLW/7wpR423t00PPwwhRzfPPnlwo6YIumeGfX0DnChyTsM/V7JXpNGrqBGX57Mt1z2NKPlZIWepudWzz09utTteGVXqloig+VDb//inKVave2uKqpK6ObknjlB8L3lq71aOQyle1aKZvGJfQ84c37QDPZr83L0lKt71zlKQr+myFWQIAAAAAuN4Q4g2T6WPGxofc7lniePU3B951q1CjQ3aAZKy26pyfTXavuxa7R9ekWL1UoVNSUV12p5kJzl52aXldHXNeUkfUCvJ8V4q1e+tllT9hXKdzHsBMxYa/Wsd2966TRt0xJj602HVM1/xylosrraGxzvvgHYqapuj7SUPPjMPKw7t0do7dQzJ+He7hx6PyQkagab+c8wAOsjvHhSSVaFZTu9Y6X48aiVvjPG2qqFdYIZWvitVrTPTUAwAAAAAgDYR4w+TohfOS+hzz4blf1kIUNwqrJ5dc88k5XuZiFDtfdMwnl2bvsUz1E0Ild0aR6sR8bJ7eY3ZvvT7n3G7Ol89CE+k7o8gu+5iOocBWT7Soaw5B58schnylbq1dZoWCWb5zyl2dvkjY3JSG19URO++GsB3YJYK8K5GoI9A0X35Dgq9eZ3fUHnJrz3PnejmG4UrxXnyxufWs8I8gDwAAAACQPkK84ZLhsNn2Hud8eumZPnGCp7dVMHmHzabr4ko7yEvjvdmTCxNDQXeecs/jFpdsyGuGDu/SWTvISwxZzXTY7H1a/ZP92r9/v37wbbPMx+Fd6gwbvfE8w2bTdUaRajvIS3W+M6bqM6HE8OWLp8JSaIJC5tDXZEN7M7XzRTvISwyT9R02m0zrzYqqT+OSDFFNl2fYbLq2VNpBXur3JhuyG7PoziuSRumdJrMEAAAAAHC9IcQbLuf/QW++KxXO2JLWIhZWz70CPfBV/4UlrJBvgr5m72v6V7do2ZSREeFJ0sWDJ9RnrB7rNVF5O8xVXK3QzTPnnmnhkyoulCJHYr36rIUussrdq69m11UpT2F1OhaeSMvCJz091qx52pxDds8ociQsFVZ56vq6f4Y+Zw+zLZqSdKI9l4sHjd54drDnXj3Wz4Mab84zaIdz/fecm6i8BdZiHedjvfp2NlgLkrhW5rUX3QgfybhX3KiVNZ55Bj3z7sWOucx8PnzYq7qWlF42SzKzpV7NvSGVr+q/R13++hbXiraSVFZWIqlbXa7eeobK3XpsWkg9x+oTC2e42Kvs9t6sVNP7AQAAAABGvk8VFBT8ydwYU1RUpM7OTl26dMksGlazZ8/WkSNHFIlEzKJgmPR97ZlRoPDh1MNifcO2D1u0ec8/6Kh7q7euUW9e1U5V3eUs+w/NWjJTip/HNK18/Lv6ovz3H2Md57waYotwSJK+peeWzNS4t35kLICRyoMaH1twIeVwUbuusTXS4Bz26a3T1/ySzjpDtxkLNMEz55t7RdWYUStrNKncMSFd9IROu4bvWsfLMo5hve+C2hyLSHj2pbCrPC7t87tPq3/yN/pSSGo/+Ij+7ifOMv9zkKTsuo0qLnTvz3tuPtfqc17uto/t21FB5irAMROVt8M91595n/zP37+9Pcc1z93mqSf/81u07rxWTx2l+ody9LSrRJKqNfPAapXLuVJscmXb2jWr2NjYVq8ax+qznjquVWglqVbzm+bKc+r7ivRKkl54qvhIv3sqou6fFejrW81CAAAAAMD1hhAP1x87jOozAihcvey6jSoe4x+gjSyX9cZrXSp5O1+F3xttFg4DK8TLPbYhvvptKs+/fE5zb8/Thrm3artZCAAAAAC47jCcFsANaLTqj2dJd3fpjSVm2QiwpFdz75Za/5UADwAAAABuFIR4AG5I29eNVf3bUsns89pTYZYGWMVH+t3sHkWP38UwWgAAAAC4gRDiAbhhPf29u3S0t09T7vvELAqs5x+JKPR2vr6w7iazCAAAAABwHWNOPAAAAAAAACDg6IkHAAAAAAAABBwhHgAAAAAAABBwI3I4LQAAAAAAAHAjoSceAAAAAAAAEHCEeAAAAAAAAEDAEeIBAAAAAAAAAUeIBwAAAAAAAAQcIR4AAAAAAAAQcIR4AAAAAAAAQMAR4gEAAAAAAAABR4gHAAAAAAAABBwhHgAAAAAAABBwhHgAAAAAAABAwBHiAQAAAAAAAAFHiAcAAAAAAAAEHCEeAAAAAAAAEHCEeAAAAAAAAEDAEeIBAAAAAAAAAUeIBwAAAAAAAAQcIR4AAAAAAAAQcIR4AAAAAAAAQMAR4gEAAAAAAAABR4gHAAAAAAAABBwhHgAAAAAAABBwhHgAAAAAAABAwBHiAQAAAAAAAAFHiAcAAAAAAAAEHCEeAAAAAAAAEHCEeAAAAAAAAEDAEeIBAAAAAAAAAUeIBwAAAAAAAAQcIR4AAAAAAAAQcIR4AAAAAAAAQMAR4gEAAAAAAAABR4gHAAAAAAAABBwhHgAAAAAAABBwhHgAAAAAAABAwBHiAQAAAAAAAAFHiAcAAAAAAAAEHCEeAAAAAAAAEHCEeAAAAAAAAEDAEeIBAAAAAAAAAUeIBwAAAAAAAAQcIR4AAAAAAAAQcIR4AAAAAAAAQMAR4gEAAAAAAAABR4gHAAAAAAAABBwhHgAAAAAAABBwhHgAAAAAAABAwBHiAQAAAAAAAAFHiAcAAAAAAAAEHCEeAAAAAAAAEHCEeAAAAAAAAEDAfaqgoOBP5saYoqIidXZ26tKlS2ZRYIXmHdKkMb/Wbzc9q8tmYbq+tFlfqSp2bGjT6Zplijq2XDeW9Co8W6p/KEdPm2WDolozD6xWeU7s76iaa0t1qNFdy6Vyt5avmq7c+IY03oOrN+TPAgAAAAAAGCh64pnsAO/ir+r0y5qZ9muEBHiVj+ufml7Q1qVmQRIVH+l3s3sUPZ49hKHNDh16uEg1FUWq2ddqFnrFAry2eus9FUWqqSDAu1r561u0tqlRZWaB09ZsHe3t0dz6j7TILAMAAAAAAMOKEM8QmlQsqU3v/MubZtF15rLeeCqi0Nv5+sK6m8zCYZN//xTlKqrmV1eZRRhyN+nxuflqzYlo9csD7scKAAAAAACGACGen54LAx+KO0IsWhdViXJV/73RZlEAdKuLnnfDZLS+/rNc6e4uvbHELAMAAAAAAMNlxM+JN/ov9+mLX77VvbHHnBPvAd2xfKUK45OsfaTwjx/Ve/8RrxA3GHPqVax/Vs/c06rnHn5Pc5oeUom9/eKxrfrmGveQ0or1z+qZabclNrS9porFTc4qkqTvbntBjzmm6XPuyywzte57Sku2OLdc1huvdWnc8bv67YVXtq1dsxz77Tm2Qf//9u4/Oqr6/vf9q8de9BtwkmKI8YueJCbQi1IxhbZCBa4nxiMrrPbID+OFA1muLz9MhVp7KmaJ6XIJuCLab2tBkR/f6wUPrAYIve0lC48xX6/QJraFxrQo92BihqPcRIiYGSAFjn57/9h7z+z9mT2TmZDABJ6PtWYtsj+f2fuzP3uyh/3O+/P5rHt6i7uKpBotaCxXfuTnNu0tKVWLp46tskHVc3ISzm+Xu7pViyefiL+PgeRqT9dc97n6nENlg6rnOFdSUnutVi0xswXNvrAEdxfodbv/izd1aGZ2kzbPmq8up4I9hLjHVU+RvghEfk6u/93zB5plJp/zlCR9qR21n2iKsrWmfLg2m8WSNH2ltv3wmxoe/K1m/5etZikAAAAAABhgQzoTLzB/n+78dpeOROaum6EjH5m1Fim/eoXyT9VF6rz3Ryn/n3brxn+0alz7H3frO9X79J3qfRp3q6Ssb+lO++fvVO/T7f/xHnOnfcss1lON90u7n1BJyRMq2X1MIyYvdc1XV6Tn9rygpyaf0q4Su07JG2orvF+Ne+apxLUrK0h3zFXvCe3LmafnSq3yV5fY22tadMYO2jn1SkrMAJ6kpedUpAwdPtBXAK9NeyPz0hXodznLNcM+pmQHnxrLldW8JlJnb3uRZvY195qpskHVjR2qbuywg1ZFmmn/XN3YoepNNeY7BlBAk6o6NFPOHHxrdDBUpJl7tivXrpG7utUO9jl9UatgYbm3XT59saqmST3RGikp3tRhBzOj+9LklVq+epGrlh2k88wfuE/ZlU7bq/S6vX1zc9gO2kWv5yrfAJ4kXaO3j2RImb26x/1BdJk6+esaLkn531CFWQgAAAAAAAbc0A3i/eOzuuVW6dP6xItOXPsf79eNateR7dEMpvP/7WUFe4Yr/x4rIHL+v83xBgF7/qT3XIHB9/s5P54nA27DG/pDSCoqtqMilffrO5mn9Yea9Xo18o5GLd19TMos1oOuYN+/z5bUfsRVT3p1ybN6Kk42W1+en9AjhTL0dmzCn22RcrMltR/yBHlalngz6IrnTlFWqEm7XNlhLUtqFVSR7vYEm/qwoTQSWPINNsVkvA2snuY1rmNsUcsHYSkzRzdJkmpUOjmgnuZ1rnOv0uu726TCGZGgpl9f9Fvpdt1dKAV3u4JsDfO1qzmsrMnl0QBp6S3KkhRscfdPlV53Z/n10+YDGQqrVzmu5EO3A83/XWclKfhXkYcHAAAAAMDgG7JBvGu/cZtGqF2n/myWuN2jrLHDpY/eMwJ9b+tvpySN/PcavBnhjqnFkwHXpv/RLSn7RpVIeqQ4T9Ip/Q8zELfhiNok5Y52oif2+wrvV+OmOGlRKflSt9wg6bOv+g+TlCRtUVe3JDPbzKNG4wulng/eNgJGbeoOSVnxoj9pqOe4N/DW9fSEaJZa5UTlK6y2d4zgXNsJ9Sig7CIl6Iv+sRb3aNNhI4Oy6/gJSTnKdbIhGz5Wj6T8OR1akOyKxMlq/KpOSMq56UuzxPLOGi2cPZuhtAAAAAAAXCJDNoiXnEL9Q5akW2dHhsZ6hs1ebqFT+tDcZhuRkxf596tLntBzzaetQF7jC2psfEG/WT24QbKWJXZWXGF5ZFirZyinnQWWNXlldNhrY4eqG1dqUqZ7T0Nb7uicyJBbz3lWTVFkisUBdlOOz5Dixg7vnHySPVx2jQ6GrECeVa/VO+QZAAAAAABcEa7wIF67/tYj6aPofHie10UsXjHYzpw45vm58eln7TnuNuoPIWnE5KWDHsizMtKceeKsgF0kkGdngfW454C7hENgLxUr+y3smg/P+3IvRDFQOk/4DCmOvMxFQbZo3yy7rKZJPQpoUhWBPAAAAAAArjRDNoh3/mSXpFz9g704hRSdJy/qUgybTVaJigulMx/8UY2SXm05JmUWqcQMtlSOU5FO6/13vKvYRrXpqVl2IM+VrSdJavhUXZ6huH6u0cefSbrhCy02i+Laon2z7EBeZJjsZR42+/CLqqurU91rKzXVLBtInmGz8fj3RfHc5LL1rOGzUTHDZpPVMF/r7ECe2d6U91nyhXIkneiMs/jJ9JXaVlenup+xrAUAAAAAAJfCkA3i6c/v6VNFF6eQFin/n74l9Zz1VAu//SedyfqW7pyfwkILg+CRTferSMe072k7OLfhDf0hdL2+U+leibZEG+fkSe2/dy1aUaKNxmq1Kv22bs+MzdaTjumzkDRi8v16xChxe7I1K+HKo1KNFrhWZ5Ukld6jokyp54QTXNyifQ1tUmG5sWLqpTH1xhzrH4Fv6vsPm6UDqGG+ftcu5c9JlN1mL4bhWugid3WrZmaHY1an7TwRljLHq9hVz1qR12VDrQ6GAppU1ccqv5UNMX1vBQTD6jZjwHYwctLceHMcei2e2quAMhS53AZWpwUAAAAA4NL6Sl5e3t/NjY6CggJ1dnbq3LlzZlF6+Mdndfs/fUsjJElnFfyXOer5xm7dOfYDvecZKrtI+dWzdaPrrZL0af0MBY2FMQLz92ncyD8Z709Nyeqf6qnJ13s3hlr03Kwd8i4IW6Tn9izVd1xzyJ1p3qjvO4E+R+k8/aaq2D5Pi2flW48SbWy8X+5ErNi65/XWG13Kefdm3fFMnEyr0u1absz7FtztM3zUp541/NQe9ulbbgs1abOxkqoV1Dqhvc7CEnFV6MW676lAUsfe2frJa2Z5EiobVD2nyP+8DL7BNqP9xZs6NLPQ/qG9Vqt23aLlVVPUY+zfUy/UpM2zPlZpY7mUqJ6jvdYzVDm2XW3x+84+36h4db/UjtpPNOWzXOX/IE4O6/SV2vbDb2p48LcsbgEAAAAAwCUwtIN4acoK4p3SrpL1etUsTBOLnzmplXdJTS+M0jxvZHHIqPhZnb6Xf1Z//uVCrXnHLE0DdgDTDOKlvaUhBR+4MKQ/GwAAAAAAXGmG7nBaXJTNzwTUpl5NWXI2hbnx0sjDL+p7+dLZP21OzwDekHVebz3QI30UIIAHAAAAAEAaIYh31bpW976QrXBmt1a+0t+Bw5dDhV6sq1PdzAJ17J2thTUHzAroty+1o7ZLRaFsrYk3jBYAAAAAAFwWBPGuZo3Ddcevs6Rbz+l5syxtbdVPZs/W7Nn9nAcP8S09oymZWaotH67NZhkAAAAAALismBMPAAAAAAAASHNk4gEAAAAAAABpjiAeAAAAAAAAkOaGZBCvoKBA1113nbkZAAAAAAAAuCINySAeAAAAAAAAcDUhiAcAAAAAAACkOYJ4AAAAAAAAQJojiAcAAAAAAACkOYJ4AAAAAAAAQJojiAcAAAAAAACkOYJ4AAAAAAAAQJojiAcAAAAAAACkOYJ4AAAAAAAAQJojiAcAAAAAAACkOYJ4AAAAAAAAQJojiAcAAAAAAACkOYJ4AAAAAAAAQJojiAcAAAAAAACkOYJ4AAAAAAAAQJojiAcAAAAAAACkOYJ4AAAAAAAAQJojiAcAAAAAAACkOYJ4AAAAAAAAQJojiAcAAAAAAACkOYJ4AAAAAAAAQJojiAcAAAAAAACkOYJ4AAAAAAAAQJojiAcAAAAAAACkOYJ4AAAAAAAAQJojiAcAAAAAAACkOYJ4AAAAAAAAQJr7Sl5e3t/NjY6CggJ1dnbq3LlzZtFlla7tSguVDaqeUySFmrR51nx1meXJKN2u5VVTlOX83Ne+BuKYGHQj1r6kwnyp9+DL+nDtUbM4ORWPa0JZfvTnYL1aV7zpruExIMccDNMWasyyicpQUO0P/lxnzPIrhXO9wod0ZNE2XTDLkxHpK1sf+0rbax7xpXbUfqLxR27WHc9cYxZ6VTaoek6ODtZM0L4GsxBXpIdfVN3MHP35lwu15h2z8BJaGlLwAan2/kw9aZYBAADgqkUmHmI1zNe6kgKtKinQ3nazEFe1rT9X64OPqfXBl3U8bBZefiPWvqQJWxZqmFmA/tu/TR8++JhaH3xM7UGzcOh5/pVPNCUzS/v6CuBdrNLtWt7YoQWVZgEuVu7qVlU3NqjYLLjsKvRiXZ22VU01C1K3cYSaQj0qrz2rxWYZAAAArloE8a40G0q1qqRAqy5lRtzlOGY6mrZQY3a+pAmR1yplTzMrXT5nVliBmEuZHXU5jpmUSGDqEmXhVTzu+ly8pAk7H9cIs85gcIKuCTLnBlraXnNJi585qfJbM9T0AtlNSHfXaF55rtoyu7XylfNmIQAAAK5SBPGAgVDxuCYsmygdfNnOVHtMrQ++Li28RMEapK1hK1ZpQlm+uuudz8Vjan3wfWWSMXiJnVf5Xb0KvztS8xrNMiAdXat7f50l3dqlt5aaZQAAALgaMSfeoKnRgsZyRWcPC/vPq+TMJ+dor9WqJVWuCtZ+sprXaN3xck/d4O4Cvb7B/qHP/UQVb+rQzELXhr7qZseZ6y6ZY5rz67n0NK/Ruqe3uLYs0ow9KzUp0/nZ7DO7vLtWq3bd4tlv7L4upbHK3vKoRivxXGFy5gtTvVr35nrmGeuuf0zHt3rrDluxSuMmBSI/x51jrI956pw5yhx+x7LY5xE9ZPxjOnVP+c+Jl8wxzfOLCuv4+mp173dtMs/RPZedOWebyT2Hm1k3wfxuMe0z5/+btlBjlo3R5+urdW6m63w9+7xPo3eWKdt8bzzmeZrvq3hcE8pG6rh5THNuv772E5HKNbev60j/Pkvmmsf0v0vsce2+i/xszl9olWccfFkfflrmOV+/Yy9+5qRW3jUs8RxjvverOPehyH3Ke/+Jub8aPPdtv/p+99Ek5K5u1eLJJ7S3pFa57vb5zFVq1Y1edP/7p/kdZom23/Xd5HpvtB2lanG9L6ljxvR/m2s//u2JctdNwfSV2vbDb2q4Z+NZY068qVr52o/0Tdfvydk//UILaw5YpVXb9KNveffg5q4rSRU/q9P3PLez32r2fzF/WRzWHI5TlK015cO12SwGAADAVYUg3qCwHzY8D2M1WrDnFjW4Hqashxq5HhDjvC/y4BJ9SIl9r8MV6PJ5EMxd3arS4xOiD5HOQ1OcB8eEQbyIxMc05a5u1eLbDhv7jD332HN0Pzy7HqztYKL5cHzpOIEQM8gQKxroiAaqrGCRPIErq15soEpGoMPZnydoUfG4RuvnMUEMZx+9PgEOSRqxdpWu2+sKntmBoNjgivoM4kX0cUwva59fO2ocb9pCjZnZpQ8jx4nf34mCTKb4df32bweU4gQEo31kBu183hdH7OfA3JcRnItsTxRETnydUrvmifrMJaVrbp/32A+9+/T5vMf8TniCfNHtsf2oaCDks1zl/+BaZ6OX333EZ2GL4k2tyt3luu/a74sJStn31p4E96VU78eJuINk0bbE3letoKEr4GUfU+72J9gWPZ/kg3gXdcy5H2ud0Rd+x+iXh19U3cwCdeydrZ+85t7mXdii4mfbdPNvXUE9+31mcM6aE+97yonZHjW1apu+/+nC6PGcIGKCQJ4VgJaaXhhFFikAAMBVjuG0g6H0FmVJCra4Hzyq9LoRtCqdHFBP8zpXEK5Kr+9ukwpnaEZppKIl1KTNrgeWrncOq0cBZbsS4ZLR9bTrgVHWIha/a5dUOPHSTBJeul1zJ0sHN5iZITOUrzbtdT2sdT29TgdDAU2aW+OqKTuY6XqI3nBIQUlZoxcZ9RL5J/2yvl718V7r/sl8QwJH1X0gKClfhTtf0oS195kVDN5MswtrD6hbAX3trrHWhmkLdVO+1F3vClDt36ZjB8PKmFQWHZ4bqWcES7b6BPCScGaFkf22tV7Hw1LG2LsuybDPYSsWaLQO6ZgZPNq/zRXAk6e/MytcmwdKRZlGB8I6vt4dIHxTx+uDUmCiRpnHDNa7Al5vKhSUNDLX7rM3dfJgWApM1LidL2nMCvsax7hPoyYF1Hvwddc1sI+ZPzVmbsXegy+7gnJHFT4algI3pHydLvc117SFypskHd/mDQqOmDlRGWHvZ+HMinp1K183mX0YPqQjrmDuhXc/VK8CurbAVafknMZnSm2tcQJ4WqQZpUVSe23cgJujZYnxh5MNtToYkrJuu0e5rs3JSOZ+/L/9dGfs/Sny2qln/oPr/XamXDSoVqXD7ZKyb7HaVrpddxdKwd2u4FfDfO1qDitrcnnkmMVzpygr1KRdZqZcfyR5TBXlKEthtb3jOmbD/JgA3sCZqpXTCqTgb6MBtTi2/hdjpdrXfqM/h6XhX5+mVJewOFDjCuBJ0jtr1BiUlP8NmbcWx+YDGQqrVzkpft8DAADgykMQbzA0fKweSflzEqxMWDlR+eYDiyS1nfAPznV/7M2Es1eQ7euBMxmdJy7VMqOLNKNyirLa98VkDxbfFpDaDxlZFVvU1e16AHWETqjT/bOq9HqJ+8E1Gf+iH5aVqSzea/m/mG9IbOvPoyu25pclXrwg/KHC7sCJgjofljKyrQyrYXeNUYaCChmBuAufnpI0UtfZAZ149QbOUZ07ZW4bJNMWKm9SQN0HEmR4uXV8pl5z2wAZcXu+pFM657lGkra+r25JGTd6g0jd78dmuLldWFut1gfrrfdOetT6bJjz4VXcrmyF9fm7RgCz47PYgJSk3k+99axjJM4CTc4lvOYaq+yFE5URPOANJOo+ZeZLvUffNT4L3t+TiFNd3nr2oiWeQHbRFwooQyfaXNvcSu9RUab5h5dk2fepAWLej/+fZx+MvT9FXg/qmX911w6r2zjHliXRRYdyp49Xltp02Pje6Dp+QlKOckslqUbjC6WeD95OkH2dvOSOGf3um1TVGvtHrMEwfZq+HpA6DvfnBnpAnwzg78lHJ8+am7wav6oTknJu+tIsAQAAwFWGIN6gqNLrJWt0MGQF8qobO1Td6H0wyR2dIymgSVVOuf2KmY9poNVogft4jR2eeYoGU+7q5ZqU6c22sxQpO1NSYbm3LxoTzy2Vfo6qe5G9cEF9NDNvdLz0ijiGZQeiWX3ul2dOOLte+LPkgl7JiFld1zvH2eBxgjn1cTMIR6w1+iLOvGoDJkG/xgSRkvKmjtuLWhyJZOZFVy8eduNISQGNXnaJz/OyXXM78zIQVLs5zHdarjLcAc/Iyzt332VTul3LB+w+dWnvxzflBCQVaaZxTM/cpgMs6WM2zNe6kloFPd+LDZcmQ7wv01dqW12d6lwvz5x2KanQi8a+Es2nBwAAALgRxBs0W7RvVoFWlRRoVU1TTIaBlYUQ1sEau47xGogMu1j2/EihJm12HWtz8yXIxCvdrrmTA94hVRFt6g7ZE7r79IWTRTKwBnI4rY+tP49kX2VPTW0V0gvdYXuOL/dqps7LNQy3u39DKH0587sF6z3Haw+aFQde3GCOzZoLLazj6139sP7QoGXi9aW3++I65cLaarv9AY2eaQ29trIsjXN0veIFNy/KZbzmkcxL95Bxx/4u9TpDhn36wm9uv0vGPWed6x61t92smIzk7sepDqdNxMrya9Ne8x5bUqBV7ikKBlBqx7SyqleVFGjV7jY7+HeZA3nuOetmz468ftuv3xNrzryC8J/1C9e+fvGnPjLxAAAAABtBvEuhYb7W2YG8yDDZeMNmB1PlROVLCjYMRlAsEWcYbbz5puIMmx1UAzyc9mJMu0tfC0SHZZrDZuOx6g3MvHDW0Nywju+9xAGSRMEcKTK0UjFDLv0NRGDzzPtBKTBGAbP/4w15HQhxhs0Opst2zfvMvIwzbPZitH018Zxi9hQI3nk17XnyXKyhoWEd3GVmE/vw3adLkvfj1IbTJhYzhNWX9UeVLKOziucmkyVuT43gktwxfWwotQN5se9Nep+RDLoXY+ebe+cTa4jqje5Z7ex58txbJn9dw3VWf/6t74fV8JE+D0vDR91qFlge/oYKJHXsXyP/ZS/iKPlCOZJOdF5jlgAAAOAqQxBvMFQ2aPlq74Ob8/AXma/InsA8f84lmv9HTuBQyi+OLhRRvGlwh28p4TDaqJZdTerJnKLFm8xFLIaC+zTanONM0rAVU5Ut9THPmx3QCB/SSecZcWu9jocDGr0szpx6DnsRguyy6LBMyV6dNuaJNTErIOhaXENjlb1lsIdW9hXMUSSgo/zbo31R8XjcYaZOYDNm8YNUOP2/0H1N79Posvykg4kR0xZqjM9CJyNmTvQG0PZvU2fQ51oOostzzfvOvIwsXJJflmAhkBQ1XqfDIalownmzxGYtAOFZ3GHTSk1SWD2uWlbwKKCi6c79fZFm7Ik3nNYOhrkXb3C7HPfjDbXWYkFVibLbtqjlg7BngaXc1a2ame3ti8j5RRb0cK8e7pLUMa1jmHPIFhcXSTqhLjND0Jk/L2bRIy8rACdJBfrGw2bpVv01KA3/1vcjAb6Kn/1I39RZufPiDnx6QtJwfX2yE+ybqpWvxRtOa8+Vl1+ildPNMkkffa6zkgrGR2/QFT/rezjt4qm9ied0BAAAwFXjK3l5eX83NzoKCgrU2dmpc+fOmUWXVbq2yy13davxMNamva7VZR2x9eyVaCNDSO0hV+21WpUgCFa8Kd6DpLVaYSQDrrLBMxdRT/Ma7dJyLZ58ItI+3zbZeprXRBaQSOqYzvAzs4LM81T0XD2V3O23HxJlvi8NOEMTPRuDajcWG7CGhro2yFrd1G+IYLJ1Y+p56tyn0TvLlO0qjvK2b9iKVRo3KXrdu+sfU+j2l1Q48pCOLLICkTHHcomukpvcMc3jufUefNm14quxv/AhHdkm5S2bqF5zZV6//Yaj7Y8pc/Eec6yyt3jnYPOWR6+52YYRa719porHY+YzdLfJzbd97rr2vmJWJDYkd51ij+d3zc06btE+Se6a+/+e2Mw+8a3rXtnZPqbP74Sfxc+c1Mq7hqn2/kw9aRZKMUGonuY1WvfOPVpeNV5tNdFhn+b9Mbi7QIeLOzQz2+++FHtPS/V+nCyrXdJBV1vj8b13G98xnjrttVq16xYtr5qiHnf7jfPraV6jdcfLVT1HMe1P+Zjy+45wMfrO9zvWGQqrDv129k8U+yszVStf+5G+aV/Os3/6hRY2T9O2H35d//2X0RVpp1Zt8wTaOvbO1l/H1+l7I/+sXzxsZtV59ylnvzV2rYdfVN3MaLbf2T/9Qpu1WD/61ok4bfxSO2o/0ZTPcpX/g3irKwMAAOBqQRAPuIRiAjwALpHzeuuNLhV9RDCkX+w/yHiDeBh0S0MKPnBBTS+M0rxGsxAAAABXG4bTAgCuAteq9t0M6dYuvbXULAPS0Xm99UCP9FGAAB4AAAAkgngAgKvF5mdGqfYjqeiBk9pRYpYC6eRL7ajtUlEoW2vIHAUAAICNIB4A4Krx5A9uVlOoV+OnfmkWAelj6RlNycxSbflwbTbLAAAAcNViTjwAAAAAAAAgzZGJBwAAAAAAAKQ5gngAAAAAAABAmiOIBwAAAAAAAKQ5gngAAAAAAABAmiOIBwAAAAAAAKQ5gngAAAAAAABAmiOIBwAAAAAAAKQ5gngAAAAAAABAmiOIBwAAAAAAAKQ5gngAAAAAAABAmiOIBwAAAAAAAKQ5gngAAAAAAABAmiOIBwAAAAAAAKQ5gngAAAAAAABAmiOIBwAAAAAAAKQ5gngAAAAAAABAmiOIBwAAAAAAAKQ5gngAAAAAAABAmiOIBwAAAAAAAKQ5gngAAAAAAABAmiOIBwAAAAAAAKQ5gngAAAAAAABAmiOIBwAAAAAAAKQ5gngAAAAAAABAmiOIBwAAAAAAAKQ5gngAAAAAAABAmiOIBwAAAAAAAKQ5gngAAAAAAABAmiOIBwAAAAAAAKS5r+Tl5f3d3OgoKChQZ2enzp07ZxZdVunarhijfqwtsyYoQ8dUv/Gn2m6Wu8wv26qym10bPtmnefW/cm1IY5UNqp5TJIWatHnWfHWZ5cko3a7lVVOU5fzcx76KN3VoZqHU07xG657eYhanv8plapyTJ4Va9NysHWo0y9OV025H+xsqWRK/9Y9sekFzC6UzzRv1/afbzOJYpfP0m6pide1+Qks3mIWO83rrjS7p13m6d6Nr89KQgg9Itfdn6knXZgAAAAAArgRk4qUBK4DXq/f2VGjeRvs1VAJ4A6VhvtaVFGhVSYH2tpuFSBsb1quk5AmVlGzUH0Jm4aXwpXbUdqkolK1adwBPkjaOUFOoR+W1Z7XYKAIAAAAAYKgjE++ye0jPLZ2h/KGUeTfIijd1aGZ24kw8XG5Fem7PUn2nO3EmXsr6yMR7/pVjKr81K0G2nZWlV/RRrvJ/cK1ZCAAAAADAkEUmXpro7TlmbgLgVnJWM26V2n4dL4AnSdfq3l9nSbd26a2lZhkAAAAAAEMXmXiDITIXnu10q9bv+Gc1eWvZrEy8nMOvatHvm83C1JjzyqlNe0tK1eKp5JrDztFeq1VLqozyHB2smaCuudbccxZjf33tJ2KRZuxZqUmZ0S2J5rJLlInnzIXnCO4u0OtmxlZMP0TFHrdGCxrLlR/52ewzu+3dtVq16xbPfmP3lYQU5pRz5pNzJD2vnIu1j2PaVbJer3pKSrSx8X4VeY5vZ9e5rlP8YybOxDPb3hYnsy7SDmOrX/3nXzmm8huytaZ8uDZ7iwxfakftJ5qiRHUr9GLd91QQ/rN+8fAaHTCLAQAAAABIM2TiDYaT/6xF9tx29Z+YhZI0WSvmbdWOpVu1Y+kM5UvKGP+I/fNW7Vi6QStGme/pgx24UvMarbLnlltVc0J3b6rxVMtd3WoH6Ow6JbUKFpar2qgnBTSpqkMzVWvXW6ODoSLN3LNduU6VDaWuMu+73Yo3LZc2OMcr0KrdbcqavFLLVy8yq/apZYlzbk3qMQsdrvn1nNfm5rAUatIud9CtdLuWN5Yry9Vne9uLNLOxQcXu/UlSYbmqq8arzek3+xwWVJoV+5DknHLR4NsTdv0ntC9nnp4rNWsm9mrLMUl5KjbbWTlORTqtP+yKBuAe2TRP2hA9XsnuYxoxeal+s9oMsfXt1SX2PmpadMYsdJTO028a71du88boMePWP6+Jt0rhI9fFCcq5XaO3j2RImb26p8Qssz38DRVIUuDrmjbdLAQAAAAAIP0QxLssmrV2h7OIxT4FJfUefjW6qMXGSq09ab6nD0U5ylJYbe+4glQN87XOkxlXo9LJAfU0r9O+BmdblV7f3SYVztAMI0DU07zGlVm3RS0fhKXMHN3krdanliUTXMeTtKFWB0NS1m33RAOCg6l0u+ZOlg5u8Gb2Fc+doiwjsNeypFZBFenumABjm/aWuM5jwyEFJWWNNusNhCL9+2xJ7Uc82XOvLnlWT7n7MRkbjqhNUlGxN5r1SHGeFGpTo2t/Mfvf8Ib+EJJG3PZtxYuFXYxH5hZrRKhFv/TN9DMsPaciZejwgWvMEl+bD2QorF7lxIs/vvZXdUhS+L9r/ztmIQAAAAAA6Ycg3pWi7YR6FNCkqtaYYFxE5UTlm4E+Rd+bbQQ8eo5763U9PUGr/IbnpmyLurrNbYNlkWZUTlFW+z5vIFE1Gl8o9XzwtjFkt03dISnLjP6ETqjTs6FKr5cUpD6cNilt+h/dkgrvV+Omiw2fNWpn82mpcJweiWwrUXGhdOaDPyp2IKyb3Y5BkWwbLItvuiBpmD5OprIkNX5VJyTl3PSlWWLbqp/Mnq3ZDKUFAAAAAAwRBPGuFA3zta6kVkF7GGx1Y4eqjWGhuaNzIsNkrXL7FWf+uAFTul3L3cdr9M5rN5hyVy/XpMw27TXn6iu9RVmSsiav9PZFo3fuvsvl1SVP6Lnm01Ygr/EFNTa+0K9hrZLU+E6bzriH1FaOU5GOaZ+ZAVc6T7+xj+W83PPaAQAAAACAy4cg3hXFyg5z5myTvPO7dR0/ISnsmg/P+4pZIGIgOItMtDtz6zlzz5kVB0Hpds2dHFBwt0/2YMPH6nGGDPv0hf8CHZdW49PPeubP6+/8dGr4o94PRYfUPlKcFzNUV6Xz9JuqYo1ofyM6P13JE9p1Ka4TAAAAAADoE0G8K9WGUjuQl6NcZ3htnGGzgyl3+nhlKayDuy51UMwZRlsbJzgZZ9jsxZq+Utvq6lRX96IqzLJ+a9NTs+xAXo5rZduktemphmP2kFprGGtbi3dcasn0Io0wFroYXMf0mc/5PDK3WCM8WyybO4dJuqBbkh1dXPKFciSd6Iw3h16FXqyrU91rKzXVLAIAAAAAIA0RxLtC5K5ujVkptbi4SNIJdTlzwTXM1+/apfw5CebNG2BW9l9ARdOdBSAWacaewR9OG3cYbcQW7WtokwrL+7VKbjxTJ39dwyVJBfrGw2Zpskq0cc8872ISpd/W7ZnSmRPH3FuTt+GI2pSn4k3jVBRq0U4jsNl4/JSk63X7dCeoWaTn9gzmcNo2NX5wWir8bmTF3ZLVP9Xc7NP+q9NuvE5t6tX4qfHmuPNaPLVXAWXoRLw1M1idFgAAAAAwxHwlLy/v7+ZGR0FBgTo7O3Xu3Dmz6LJK13Y5pnx3g5aNzzA3S/YqtIt+3+za8pCeWzpDOTHbU1e8yQiOhZq0eZZ3RVbZAb/FkwPeje66lQ2qnlOk4O7EQ2xjjufifq95vODuAh0u7tDM7OgxzTpuPc1r7AUkarSgsVz5ZgXJXj3WHjbrDOE1q8inT3zrhnWwxlmJdpFm7FmpSfLvyxjTV2rbD7+p4erQb2f/RFuN4kc2xQ+Mte1+Qkud/naGt8Yr7wfn2GeaN+r75nx4dhDtqcnXR35u2/2EWopf0NzsFj03a4cak25/iTY23i//HMdj2lWyPjKU17O/9jdUskTa2Hi/5HOuz79yTOU3ZGtN+XBt9hYZvtSO2k805bNc5f/gWrPQVqEX676ngvCf9QsWtwAAAAAADAEE8QAMDSVn9ZcnuqV3b9Ydz8QbJitpaUjBBy6o6YVRmnepRgcDAAAAADDIGE4LYGhoHK59H0mBu05pR9y58c7rrQd6pI8CBPAAAAAAAFcUgngAhownf3CzmkK9mvJESM+bhfpSO2q7VBTK1pq4w2gBAAAAABiaGE4LDDmJ5pxzCUXnsruynNdbb3RJv87TvRtdm5eGFHxAqr0/U0+6NgMAAAAAcCUgiAcAAAAAAACkOYbTAgAAAAAAAGmOIB4AAAAAAACQ5gjiDbCCggJdd9115mYAAAAAAACg3wjiAQAAAAAAAGmOIB4AAAAAAACQ5gjiAQAAAAAAAGnuK3l5eX83NzoKCgrU2dmpc+fOmUWXVbq2S2netqGg6Dv36Bv3/if92xf/U+/u+hd9+tERs0qfrh91k+6e9wNlZH5NkvRvX36pv771f6ntD2+bVSVJd9w3S2Pu+g/qDX2u3+14RadPdppVLgv3eXz47r/qL2/uMaugv0q3a3nVFGWpTXtLStVilidlkWbsWalJmc7PYR2smaB9Dd5aEZUNqp5TJIWatHnWfHWZ5bh4S0MKPiDV3p+pJ12bn3/lmMqVq/wfXOvaCgAAAABDC5l4uOKcPtmpfS9Vq+7ZZfrw3X81iy+7ou/cowdWvqQ77ptlFmFI2aJ9swq0qqRAq3a3mYW41ErO6i8P9Cj87ghPAE+SnqzLVvjWLv3lmS+NEgAAAAAYOsjEG2Dp3Lar0R33zVLht6YnzMS71Jxsw/Y/vUN23ZWiskHVc3ISZ+JhEJ3XW290qeijBNl2S0MKPtCjtl/n6d6NZiEAAAAApD8y8QAAQ9riZ8IqUpZq4wXwJGljpmo/kooeCOl5swwAAAAAhgAy8QZYOrfNMeWhpbpp7DciP/d0faLGTTWe8swbb9b7b//fKp7xoL567XWSpM6jf1XTr7wpLDfeOk53zf2nSJ0vzp/zncuur3pOdtq/u+YaSUo4P13Jkipl5d4c+dlsv1uiTDxnLjyH337MdruZ9c1zMOfiM9ttcua9S2VOP7N9Zl2nvKOlSSNGjopcd7P/L58aLWgsV37k53jzypn1zLnsrPKs5jVad7zcmnvOFtxdoNc32D9E5sKzJZifrnhTh2YWuja012rVkirXBpdEmXjOXHgO3/2Y5+cSU7/vufhyV7dq8eQT2ltSq1x33QTnm1iJNjber+hZnNYfap7VU8a5PrLpBc319NkbKlnSaP9QpOf2LNV31KLnZu2Qs1WSVDpPv6kqlpo36vtPO0OTzWMe066S9Xo18rPDysLLefdm3fGM9bsXV8lZ/eWJbimZugAAAACQZgjiDbB0bpvsAN2Nhbd5Aj1THlqqM6dORoZ2uoN8TmDJCXi5F1hwglaftn8QCe6VLKnSiK9lewJEznvdQa8bbx2nsVNKdOC/rpepZEmVhv3DcN8gntlWpw3hk50xATj1EcRzOEGzC38767sP0x33zVJB8RTPOd546ziNv/f7+uOvt0baXLKkSoFRN8UcO5XhtIna7/SrO7jqXDvnOrmDfE7/O+crybePLx07cOUJUtVowZ5b1OAONNmBNzWv0bqnt0iRAJs7kOcOgkW3W8EsxQS5IvvI9g9q5a5uVenxCbHBv5iAmi1REC/CDr51x9mHqbJB1XPkG6x095nfOVrbApKknki/xb43OXYwzROQK9HGPTdqpysYV7L6p3rw+LNaGukzKzA3wvW+ktU/1VOTFRMAtLafigbpfIJ6VoDQJ5C3NKTgAxfU9MIozfNEBv18qR21n2iKsrWmfLg2m8UAAAAAkMYYTnuV+YfA13TuTFiffvT/RrY1/WqjbzDJHbDraGlWb+hzjcofGynPm/AdnTsT1l8bfxvZdvit30iSCr89TbIDZKPHFcdkrX360RHfAF5fzLa2/eFthU92asTXsnXjreM8dQfDjbeOU0HxFHW0NHmy2D796IgaN9V4AmLHWv8gScopiPbZQHH3qzs78q+Nv1Vv6HONHles60fdFNneG/pcf/z1Vsle+CP06Scadt0/KOP6SE5aEv5Jv6yvV32817p/Mt+QWOktypIUbHEHlKr0uhFUK547RVmhJu2yA3iS1LKkVkEV6e7Vi1w17UwzV9Cr653D6lFA2a5EuGR0Pe0K4ElSw3z9rl1S4UQVuzYPnhotmFOk4G7vyrm5q2coX23a6wrCdT29TgdDAU2aGxuADu4uiAQ+pSodbpeUfYtyjXoJld6oXEltLe4IWaOWGtl0jU+7AniS1LBD+9olFY7TI06dd9p0Rtfr9unuC1Kkktuul9qPRIJzj8wt1ohQi34ZycqTXl3yhtqUpxmrvRfz+Qk9UihDb/cZwJOka/T2kQwp8wtXhh8AAAAADA0E8a4yfwt/rozMr+nueT/wBHlMX5w/p0/bokGq0yc7deFvZzXsH4br+lE36cZbx2nE17IV+vQTT+Cq93SPLpz7m/4hYA0FvfHW/1XXjQjoZPBopM5A+1v4c3PToBl/7/d14dzf1NHSbBbFOH2yS//2xf80Nw8Ip1/Nc48XoDOvU//8i35YVqayeK/l/2K+IbGGj9UjKX9OhxZUmoWOGo0vlHo+eNvIlmtTd0jKyjFCMd0fe+s1zNe6Etdw2ovQeSJsbho0xZvKlR9qUoOn3YtUfFtAaj/kCexJW9TV7RecC6vbWDS3ZUmBVvlkHibU8Km6JBXNeUEb414nfx+eOO3dYAf2Rtz2bZU420q/rdsz3UHCEhUXSmc++KN3yK2O6bOQNCInz7XtS91yg6TPvpp0Vt3mzmGSLuiWSAMAAAAAYGggiHeVafrVRn347r8qI/Nruq9ypWb/dL1KUhpaZ7l+VK7+3Vf/F9009hua/dP1kdd9lSsjc7lJivy7NzQwgbYbbx2n7z/5oueY7vn9BtMd981SYNRN+vDdf/UNiE15aKmnXXf/50d959IbSGdOnTQ3SZL+3Vf/F10/KqV8q8ugSq+XrNHBkBXIq27sUHVjq2aUuqrY2XpZk1fa5c7LPSfcYKjRAs/xOiLDUwddZYNmFoZ1cIMZbCtSdqakwnKjL4y5+wZco5aWbNQfQlYgr7HxBTU2/lTPua+TZA+7dcqt11OTrzcr6dWWY1JmkUrs95dML9KIUIt2RobhWpl/IyYv9eyrsXGpvjOo1xwAAAAA0htBvKvQX97co7pnl6nu2WXq6fpEWbk3pxzIc7LMOo/+NbIv98sZOusE79yBvf5y5ne7cO5venPDmsixOo/+1aw64JxhtJ+2fxAzN52Mueicdv3uv76sL85fnrkR/+2L/6nTJ1PKt0rCAA+nlSRt0b5ZBVpVUqBVNU3qUUCTqlyBPDtbr6d5jVXHfKX4uU2OPXdcqEmbXcfa3HwpMvGsYbQ9zet85tazsg/VXhvbDyX9yLBLSZuemvWESkqeUElNi87oen2nyh3Is+fNC7XouRK7XskTeq7ZyMSTpA1H1BYZUmsNpfVk3dmZf2eaN0b243lF5uUDAAAAgKsLQbyrXOOmGvV0fRIZJhuPOXzWHDYbjxPsc8+l1183Fo3TV6+9TsePtPhmwg0mZxite/4/x/WjblLmjTerN/R5SsNsR4wcZRYl7dOP/l+dOxOO6VenLWc+7x6ElWcHeDitqWG+1tmBvOgcdnGGzQ6myonKlxRsGMygmD9nGK17/r+oeMNmL9ZUrXytTnV1dXrxYbPMR8MOfd8O5N3gXJbKcSqS1NZgrDrrq1E7m09bQ2pLv63bM0/r/Xfc4379hs3Gc40+/kzSDV9osVkUx+KbLkgapo/7bigAAAAApBWCeFeR60fdpJIlVZ4FIJzg3IW/nU0YGBt/7/clSe1/3C/Zc68dP9KirNybNeWhpUbtqE8/OqKTxz6MqXfjreM09T8v89TtS2/oc/3bl196AlclS6oGfThtX8NonfkCrxsR0I23/q+SvQLtlP/9Ed/htE4AdFTemH4vxuHu/zvumxXZ/o2S7+m6EYHIohpprbJBy42FKXKnj1eWZy63LdrX0CYVlsfUHTRtJ6y5+oqjC0UUb7oEw2njDqONatnVpJ7MKVqcxCrKSZs+TV+3T61gfIVZKlUu02+MxSRKphdphE7rM+c6tZ3SGUlFxdGJ5h7Z5D+cVs4CF5lFenBukUa0/96zUq3UpqcajkmF98cc18+TrVlSZq/uSWqOuy91z7heKfRVGdMFAgAAAEDa+0peXt7fzY2OgoICdXZ26ty5yzMkMJ50bZfSvG1yDUl1B5c6j/7Vs8KpMzTUrTf0uX6345WYIFbRd+7RN+79T/p311wT2fZvX36pv771f3mGnd5x3yyNues/RH7+4vw5vbvrXyLZYn7HdLjbZ+7HGUo7Km9MZH9+bXK4z6NkSZWycm82q0iulXn9+svhPofrR92ku+f9IDJs+Ivz5/T+23t1+z0zdfLYh57+VZzr4Bwz2fbLpz/MfnWOY7ZhykNLPX12ueSubjWCY23a61pdNqJ0u5ZXTZF3Ld2wDtZMsIed2kNg22sTDrGNPV5UT/Oa6EqulQ2qnhMNIPU0r9EuLdfiySei7fNtky3UpM328NbiTfHnrAvudhbdsNtvVpB8+sS/bnRfznnK1T+JTNXK136kbwakjr2z9ZPXzHKpZPVPjYDcMe0qWR9ZTVaygn2Nc6LZc2eaN+qXmqenJp+KrasiPbfHmuOubfcT3lVtHaXz9JuqYo3wbDytP9Q8awT9zuutN7qU8+7NuuOZ2N8Zj5Kz+ssT3Trx6zzd6/2VBAAAAIC0RxBvgKVz25KVLgEeAEjG4mdOauVdUtMLozQvwTDZ5185pvIbsrWmfHjSq9kCAAAAQLpgOC0AYEjb/ExAberVlCVn48+NtzSk8lultn8lgAcAAABgaCKIBwAY4q7VvS9kK5zZrZWvnDcLrWG0D/Qo/O7NDKMFAAAAMGQRxAMADH2Nw3XHr7OkW8/peaPo+dndCnyU2/eceQAAAACQxpgTb4Clc9sAAAAAAAAwNJGJBwAAAAAAAKQ5gngAAAAAAABAmiOIBwAAAAAAAKQ5gngAAAAAAABAmiOIBwAAAAAAAKQ5gngAAAAAAABAmiOIBwAAAAAAAKQ5gngAAAAAAABAmiOIBwAAAAAAAKQ5gngAAAAAAABAmiOIBwAAAAAAAKQ5gngAAAAAAABAmiOIBwAAAAAAAKQ5gngAAAAAAABAmiOIBwAAAAAAAKQ5gngAAAAAAABAmiOIBwAAAAAAAKQ5gngAAAAAAABAmiOIBwAAAAAAAKQ5gngAAAAAAABAmiOIBwAAAAAAAKQ5gngAAAAAAABAmiOIBwAAAAAAAKQ5gngAAAAAAABAmiOIBwAAAAAAAKQ5gngAAAAAAABAmiOIBwAAAAAAAKQ5gngAAAAAAABAmiOIBwAAAAAAAKQ5gngAkI6WhhR8I6Tnze2XS+l2LW/sUHVjg4rNsqQt0ow9HapudF6tmlFq1nGpbLDq7dmuXLNsqLH7b0GlWQAA6Jd0+54EAOASIIiHizPqx9qydKueG2cWAOi3krP6ywM9Cr87Qk+aZUPaFu2bVaBVJQVatbvNLEQCxZuGdjBzINufu7r1IoPJl9ewFas0YefjGmEW9Me0hRqz8yWNrjALgKvAxhFqCvWovPasFptlAABcob6Sl5f3d3Ojo6CgQJ2dnTp37pxZdFmla7uU5m0bFKN+rC2zJujE/go9dcQsxNXpPo3eWaZsc3OwXq0r3jS3IsZ5vfVGl4o+ylX+D641C68clQ2qnpOjgzUTtK/BLLwClW7X8qop6tldoNc3mIV9K97UoZnZTdo8a766zMIhYCDbn7u6VYsnn9DeklK1mIVDwLAVqzRu0im1P/hznTELUzVtocYsm6je+sd0fKtZeHnEvdaVDaqeU6Tg7gK9Luvf8YV1sGadVLlSkzLNMpf2Wq1aUhXZt6mneY3WPb3F3JyEGi1oLFe+a0vQ93fXrBeOf0+LtLHtoj+71u9AwLXFvU+zTTanryLi1JNfXfcxzfYv0ow9F3ed5O5f+16ZZVbwaZPlKvnOBADARiYegEHRe/BltT74mPWqD0r5ZZqw9j6zGgyLnwmrSFmq5WEEwJVqQ6mVkVtSoFUla3QwZAdpItsmaF+DK3M3kr0b1sEa1zZPUMco292mrMkr+5EBagW3tDu6r83NYeXPMYbDl27X8sZy5bvavbc9oElV5jQBNVrQ2KHq4kPa2+7e3h/WlASLJ8t7riWHNH5TjadmT/Mab98VlqvaqCOZ/e7Xr5K0SMW3BdTT3KSgijTeMy1AqtfJCtiZxzQDpN46tQoWlsfJwL1W9/46S7q1S28tNcsAALjykIk3wNK5bdJkrZj3iO4M7dO8P/6jtsyaoAy7pPfwq1r0++bYutc7P/fqvT2VWnvS+ml+2VaV3eyqbgg6mXlxMvXml21VWWar1u/4ZzVJ0rhntWPaKL23p1LHv+3e9zHVb/yptkuSHtJzS2dI+yu0d+QGLRvvtN5dJ3nRbIh6XbflUY12/qgdPqQji7bpgrtyxeOaUOb6e7VvVpmZgRbW8fXV6t4frTFi7UsqVL1a9+ZqzLKJkf7v9smiGLH2JRW6Dtl78GV9uPZo5OdhK1Zp3NgPdWRRl0a5jmvWi9Sd5PqrvW/7Y+v57atvVj9keN47VtlbHtXoQNDIPnG2Oz/H9pkUzTZx+ksy9jNtocYsG6PP11fr3ExXv/ldyz6vk1Wu+sd08kZ3f5htt/R1nSzmMf335WQU5Lx7s+545hqz0GZmT8TL/DDrmdkTVnlW8xqtO17uyY7wZJyYWREhnwwbW/GmDs0sdG2ImznRRyaema3hux/z/Fxi6puZIrF9Fs3uqlWuu26C803Mv31mNk/CPjP73mS2zey3mGs+CGLa6DpmTJnBbH9Mffd18u/PqNjjmlmPvhliMce8mD4zf8/d9xazzGTeE8x7o/feYt53TNHvFL/7cbxsQLON5r0xOb79LCMTzxOwsX8/u83fW0Of94zYMid7LPaYqbI/f67fT//zNM/F+jm7wTq+9fve/8+YdT6KOU8v1709koXo3AN9MvZi7pc+SrdredV4tdVMUNfcDs1UgvfEuRbRMr/PgEuc39/I76pve7/UjtpPNEXZWlM+XJuNUgAAriRk4l2Nbp6hHbPG6OieCs3bWKF5+48pY/wjrnntHtJzS+1g30arzvrD0p2zNmjFKKvG9nr7vXta1WsH7Zy68zb2d2hthu6ctVVlco77qt47naeyeT/WFFet/GlbtSzrnYR1kpevwp2P6mtHnayxenUHJmqcK2Ns2IpVmlA2UsfX21llD9arOyarzH74CdZHs88ePKBrFy7UMFctSVZG2rIx+tze35GDYWWXrVL2NKfCfRq98yUVjjykI86+1h+SJj0am8kWmKhxO6fqvNO2+qAyJj3qmR/JeliTq/2P6Uj31Jg5lEasfcl+qPMec8yKsd6KFyP8mSugdp9G73xUo09F++zIQWn0MndfRAN4cmf2rf9MN5l9oYBGL7ODpHGupSoe1wT7gdZ7zNg5pbLLXtK47AN2vZd1PJyvwi3e62k9SAejffbgY+rMXhDbfuOY7cF8FfrNibX0nIqUocMH+gjgeTIn9im70sg0sTNEslyZGHvbizTTJ4sha/JKVc+R9tr1rIwTVyZJw3yti+zDeLNL7upWjW9xZU7UNKknXuZHXyJZOnaGjq8qvW5kclgZIG3a63nAq9GCRvuhOnKO8smWkaQizWxcqaIPnH6rVTBzihaneg4+/b+qpkk9RrU++8zs+1CTNrvP1wxGFR9y9ccaHQz5X/MBYz9Uy3OeJ3R3f9qvGi2olHa5yr1ZTdHrvbk5bAfbXPvqT1Ckr/anpK/vgDd1PHLPCdtBu+h9o9UI6o9Yu0Da5iq37+3O/fjMCudeeEi9dtAuuq/YPwr1ra/2D01dx0+YmwZIjcYXSj0fvG0EKsutPwAUTrR/76wstbgBq5RY2XAKHVaLGRxLVuiEOs1tScidPl5Z9nFbWtpc53cJNczX79rdfet2jd4+kiFl9uqeErMMAIArC0G8q9Ix1W+MZtXpyAcKSsoZOVmSNOW705WvY6qv/1XkHU2/36b3Tmfozm8/FNk2GHoPv6p5keM263fHeqXrs1TgrnS6Vev7qpOC7vrHXBkKbyoUlDQy135wuU+jJgXUe/B1VzbCmzpeH5Typ0aDNdNylSGp+313dtubOh6TBaaY7IYLaw+oWwF97S7r4WzYiqnKVlDt7vfu36ZjB8PeY9q6612ZElvfV7ekjBujgbdh2QEp/KHCrmyKC2urvQ950xbqpnypu971IGkfM2NSWWywKUXDVizQ6IDUe/TdyDlFztOVEXhh7es6Hg5o9ExX4K3gBmUorM/fdWW37d+mD30yCb0Zhm/q5MGwlH+73f6xyp6aLwXrPRkp1jGl7KnGw2r4kI5E9nVU4aNhKXCDq85YXTdSUvB9z8P3mRVG9uXMicoIH9Ix1zHPrKhXt/J1kxEgfX5CjxTK0NuNns1RpbcoS1KwxR2kqtLrRsZL8dwpygo1aZdrLqiWJbUKqkh3r17kqukEVqIBkK53DqtHAWX7T1sUV9fTE7wPqgkfuAZDjRbMKVJwtzeYk7t6hvKNwF7X0+t0MBTQpLmxwZrg7gJX9kqVDrdLyr4lpeF4fv3vZ0D7rGG+1nmCl1u0r6FNihn6NoCKcpSlsNrecZ1nTDuSFfs5btnVpB4FVDTd+MwOlGTav/iXqq+vj/v6pTObfkrfAX0z7yPaWq/jYSlj7F2DE1Qb4Pani9zROZLC6r7YdXTse2/PCXtHzs/Ho5+d3NWt1h9EdrdJylFuzB8JLlLpPSrK9AkcJiF39XJN6ud7I0NpnfduOOQzpPZS8u/bzQcyFFavclL87gIAYKghiHc1Ot2jDs+GX+mpjRX2cNrJujsvQ/rkA2N4arOOhyRl/mM/M96Sc+KUe0iv1PT7Ss0zhsr2Hmu2huAOiLDOezvDynBwHlwqble2GUCSpI7P1KuArnUih/u71Gtnb5kZXTGMgJoU1PmwlJGdL2msAmMDRsaa5cK7H3qPKUkKKtRHxsWF7rCVsWdkkbkNu2uMMnz2deHTU5JG6jojcJiMjEmPasLOlzRh50uRTED38NrA2EBMAEw6qnOn3EHUaF/HZOj58D6AGu2fdpe+FpB6u4OeOv4BOm/A0Z/d1pisTLf7lJnvty/3NXd8qVtukPTZV+MPBWr4WD1S7NxMHnEyRNSm7pCUZT7hdH/srWdnTw1E5kjnibC5adAUbypXfqhJDcYwveLbAlL7ISNLa4u6uv2Cc7EP+y1LzIyxvsTr/+QMaJ+1nYjJ/htQbSfUI785wAaI/XkfNMm0f/MPVVZWFvf1Q+eXNZXvgH6x7zeDZaDbnzlFixs7VO1+xVnQYNBUNmjx5IB6mtfFDutMySLNqJwSG/B1l+/p0OKcff3LCB0kWZNXRvremUPPd5GPwnLvdWrs0HL3H3tK71FRpvvcre+S/OLYP4IkK3+O8dloTPA76JLw/tj4VZ2QlHPTl2YJAABXFIJ4MOQp63p7yO3SrZ5XojnwrlTDbhwZGabpBKQm7HxJEzzzs8keKvWyldFV5tTrO+gU16muuAEkd5ZdMi6srbYWlghM1Din/UbQaVh2wB5abJynex7AFEUWtqgPWn3ozq5Tvq4N2AEw45gx8zzt36YPH6xXt+c6+AxFTVLvp+Z8dY7Ug5VnVthD41zn4Rl+bGe3uAOa1ss711XyqvS6PcQ0+hBkPPzYGSLuBzjr1cfqgRfNnrzd9fKunjiIKhs0szCsgxvMYFuRsjP9H1I989BdNgPbZ8WbvPuqTjQf3UBomK91JbUKKqBJVc5x+z98N3d1q3GdEs2BNwAGtP0D/B0wbaHG9HVvHFAD3H5z6HSJM9x9MLmvY4c9L1ucwFXSovNpBnf7zPFmD9cv+mCNzzxtl1dkYYvdbVbf+GQeS/4LW7j7LHf6eGXphLoi575FLR+EpcIZSQXe/MQubOHXt7Fuyun//REAgCsFQTwYjqnntKRPovPheV7OQhRXCSuTK+yZTy7+vENH1b3IPU9RctljqYofhEpg688jbW4PxmaPXej2m6PJeaU+sbnH1p/bx3QPBbYy0eSZf8n1ihnCFZ1PygoKxplT7qKc0rl+nOeFtdV2u60HYPe8VU52i2elXvfLb0hwn1wrAdZYww09mUR29pJnZUL3a1AeNO25+owHd2vussFmDaP1z7axMkb8HlJXlaSaYTfQBrbPrAnzjRUhfebhG3iuuQl3W8N3+zMPn3sBgug1qpWZNzvw+mh/ssNppYH7DnAW8jHuj+2D3hkD1P7Lxvj8JxkYSqR4kxXA62leYwx9d7KirVVsPUGv0TmSJ+g1QOxjZt12T0rD+7Wh1JqTsl9BNzubWUWaGfPHhkEc6u5rkXKzdXFzAgIAcAUgiAdDisNmT/5/1vAFez695Dyk24dKVp85bDZZ+7fpQ/shqM/32sM8raGg9tDOyDxuUfGGvKbqzAr7YdA1ZDXlYbMPv6i6ujrVvbZSU80yH2f22g+EkWw8n2Gzydr6czuQ13d7R9yeHx2+vP9dfR6Wsm83h77GG9qbqqPqXmQH8iLDZP2GzcZzjT7+TNINX8gTF0ikYb7W2YG86Bx2cYbNDqbKicqXFGy49EExZxit//xz8YbNXqypWvlanerq6vTiw2aZf/8XzzWy4lLss84TYSkzRzeZBVJkCK/a9yUdtKj4mdX+bVXJ/AYnaUOpHQiLnbMqcfudCfvN4dD+rMUKYo+RmN1Hifi1P9nhtKYE3wF93W+te31Yx/cmEeS3/1CQWoa2fc9LJEH7pdS/A4YiZ+XoHs8qrw57vsyYz2y8IfwDwT5m5ngVp/TZj84vGTcbLx57Hr7YzDkrIzzlgOLFsBcNiTtVQckXypF0ojPewlAAAFwZCOIhxvY/tqr3+glaVpbMIhZW5l7G+BmabxYpGuTLv9XZ10N6bumMwR0iNZD2b1NnUMbqsT4qHo9ZxdV5EDPn3PMaq+yF1sIHJ+3gnLXQRb4K3UNepy1U3qSAeg/WpxhoGqvsLWbGmjVPm2fI7tZ6a0GJZWZdfxXj7ae6wNc1bbpZ6sPuR3c23pm9h9Rrrh7rY9iKVTFzNI24Pb/vzLmKx1WYL3UfcLL6jqr7QFDKLzNW712g0YEkH5g97tNoc57BmHn3osc0Px9+nmzNSry6XmWDd66iyFAn91xu9oIGheUxdQeNPfeae46k4k0XNzQ0KXGH0Ua17GpST39WmE1k+jR93T61gvHmBGKxQ81yV7dqZnbYmxWXYp9ZgSufhUmkaMahe0GMyoYEw2mn6uaR1r+Gf+v7Ms8gWbmrW2PmZiwuLvLNQkrcfjvY6g5O2Cv8+n5XOHPZxQtIOFlSkb61sx6Naqm0v0+pfAc483x6phiIsoJ80cWOrPt4vOG09h8K4i5AZJdHFsQYq+wtPsP5U2l/f74DhpjEATyLc2+Z6/pMW5l75grZA8daoMhvHscaLUh0j4ssmpNaNp71/dKmwzHBdfs+14+AYr9UNlhzKsb9g420eGqvAsqQs/YIAABXqq/k5eX93dzoKCgoUGdnp86dO2cWXVbp2i6ledukyVox7xHdqVat73NYrH+wLbi/Qk8dMTb61PXUG/VjbZk1ITKHXHB/hfaO3KBleR9G2zHuWe2Ylhdn/w7rODmHX7UX4bBM+e4GLRt/UvXGAhh9GbZilb3gQt/DRa26xlNP+JCOuIZ9xtYJqv1B12qvkkas9XkQ86yo6rhPo3eWKdu1pbveO3zXOt4p4xjW+zIOvuxaRCJ2X72e8qik2/fwi6qbWSCF/6xfPLxGBzyFfm0whohF9hfbNvmca0y7jL6P7NtVxVwFOKLicWOuP/M6+bfft799jmu2XfKv59++83rrjS7lvHuz7njGP5vAGXYY1aa9fpOpl27X8pggTlgHa5whZnZgo7024RDb2ONFeR5wnYcsV9kuLdfiySei7fNtky3UpM328FbnAdpPcLez6IZ/YMZi9ol/3ei+nPOUq38SmaqVr/1I3wxIHXtn6yevmeXGObTXatUSaUGjNfQuMiwvmT5zibkWrj6LOcdQkzZvkOZWTVGP+5gO53dYHfrt7J/I/MgmK+Zaedrklbj90bnHLG3aW3JI4xvLleUXSDH6LuaaG5+14O4CNYxu1eLbDnval0r7+5LMd0BEH/chc1/d9Y8pdPtLKhxp3Psk3/uo9z7kLe89+LI+/LRME8qU8JhmmzwSfAcUb+rQzGyffrSvmfv3zmJf++7E9yLr/Tn+v6OJylKV6D5l3Ddi65r3Hp/PmFsf9994YvfpPq51L4j5vXHaGjmm/31RctrVlvi62PuTeZxE1yLm9zYq0q8xfSrju8vPl9pR+4mmfJar/B9caxYCAHBFIYg3wNK5bbj8RqyN9xCGi2IHyXr9AmhDzOJnTmrlXVLTC6M0r9EsBQZKhV6s+54KfIIwADCkLA0p+MAFvjcBAFcFhtMCQBrZ/ExAberVlCVnk58bD0hRxc++pwKd1Z//TwJ4AIay83rrgR7powABPADAVYEgHgCklWt17wvZCmd2a+Ur581C4OLYCxJ8L79Dv529UGveMSsAwFDxpXbUdqkolK01DKMFAFwlGE47wNK5bbj8GE47SK6g4bQRS0MKPiDV3p+pJ80yAEDyfOdZ89HPOeouRuz8dn76mhPuKsX3JADgKkQQb4Clc9sAAAAAAAAwNDGcFgAAAAAAAEhzBPEAAAAAAACANEcQb4B1dHQwlBYAAAAAAAADiiAeAAAAAAAAkOYI4gEAAAAAAABpjiAeAAAAAAAAkOa+kpeX93dzo6OgoECdnZ1pN8dburYrVfPLtqrs5ujPwf0VeuqIuwYAAAAAAABAJt5ltb2+QvM2Vmjenlb1moUAAAAAAACAjSAeAAAAAAAAkOYI4gEAAAAAAABpjjnxBs1krZj3iO683vm5V+/tqdTak95akqRRP9aWWRN0IsGceOb8eb2HX9Wi3ze7q0h6SM8tnaH8yM/HVL/xp9ruqWOZWrVNP/rWcHXsna2fvGaWAgAAAAAAIJ2QiTcoHtJzSx/RnaF91px3Gyu0/rB056wNWjHKrNs3K4B3TPX2vuZtrNDbWQu9+xr1Y21ZOkM5h1+N1Kn/JE9lS5/VfFc1y1RN+/pwSVLB+AqzEAAAAAAAAGmGIN4gmPLd6crXMdXX/yqyren32/Te6Qzd+e2HPHX7NlmjMyV98oEno257vTerb/63JyjjdKv+D1d23vb6fQoqT/d8d3K0oiTpgPb/97OSpI7DW40yAAAAAAAApBuCeANusu7Oy4gJuknNOh6SlPmPmuLZ3hf7fTfP0I6yeAHAh3T7zVLvsWY1ebYfU89pKSMrz7NVkg7ULNTs2QylBQAAAAAAGAqYE2/AmfPSGU63av2Of/YG25KYE2/Kdzdo2fiMyM+eOfHs90dLDZ/s0zxXViAAAAAAAACGFoJ4A85e0CKUQuAsiSBeVHTBjGggzwoc5vgudgEAAAAAAIChjuG0A66/w2aT1ay1O17Ve55hsvGHzcYztWqb6urq9OLDZgkAAAAAAADSDUG8QbD9j63qvX6ClsWdwy4VD+m5eT/2BgRHTdbY66XenmP2hmatbTkm3TxDW2IWsfDD6rQAAAAAAABDCcNpB43/3HjByJBZ/3LLMdVv/Gl0YQyfOe+i+3HxqSf16r093pVsZWfi/ehbw9Wxl8UtAAAAAAAA0h1BPAAAAAAAACDNMZwWAAAAAAAASHME8QAAAAAAAIA0RxAPAAAAAAAASHME8QAAAAAAAIA0RxAPAAAAAAAASHME8QAAAAAAAIA0RxBvgBUUFOi6664zNwMAAAAAAAD9RhAPAAAAAAAASHME8QAAAAAAAIA0RxAPAAAAAAAASHME8QAgHS0NKfhGSM+b2y+X0u1a3tih6sYGFZtlSVukGXs6VN3ovFo1o9Ss41LZYNXbs125ZhkAAFeB5185puAr583NAICrFEE8XJxRP9aWpVv13DizAEC/lZzVXx7oUfjdEXrSLBvStmjfrAKtKinQqt1tZiGQlNzVrRcZTHaxg9MLKs2CIWLaQo3Z+ZJGV5gF/XGfRu98SWNWjDULAFxGT9ZlK3xrl/7yzJdmEQDgKvSVvLy8v5sbHQUFBers7NS5c+fMossqXdulNG/boBj1Y22ZNUEn9lfoqSNmIa5O92n0zjJlm5uD9Wpd8aa5FTHO6603ulT0Ua7yf3CtWXjlqGxQ9ZwcHayZoH0NZiEQX+7qVi2efEJ7S0rVYhamqnS7lldNUc/uAr2+wSwcAqYt1JhlE9Vb/5iObzULU2XduzMOvqwP1x41Cy+LuNfavm5qXqN1TxdpQWO58t3lhp7mNdql5Vo8OWAWubRZx7H3nWUWt9dq1ZIqc2tqXPsO+nzmijd1aGZh9Oee5jVa9/QWdxVJNcb5hvt3H61sUPWcInNrnGM61yIQ7SffMi+/c0yG2Q8W87hmP7jEXKvYuu629fU5i94fYvcTYR4zpn/d7V+kGXtWalKmq9hk7m9pSMEHetT26zzdu9FdEQBwtSETD8Cg6D34sloffMx61Qel/DJNWHufWQ2Gxc+EVaQs1V7JATwAGDBVer3EzvAtKdDm5rAdMIluW/f0FnU9PSHy86qSWgXtgFV0mzeAE9wdff+qmib1FJZfZAboIs2o9AkOSpGpBmYWutq9u01Zk1dq+epF0Wql27W8sVz57bWRtu1tD2hSVR9TE8QV1sEa13n6HVOStEjFtwXU09ykoIo03jdz1dvnq3a3KX9Oh6o31ZgVkxNq0mbP9SrSTL/+d/VF5GUG0xrLleW61pubw8qf0+Fznknq45i5q1tVPafI+xkqOaTxkakhXFnpdl/FXAszYLwxU7UfSUUPpNE0GwCAy4JMvAGWzm2TJmvFvEd0Z2if5v3xH7Vl1gRl2CW9h1/Vot83x9a93vm5V+/tqdTak9ZP88u2quxmV3VD0MnMi5OpN79sq8oyW7V+xz+rSZLGPasd00bpvT2VOv5t976PqX7jT7VdkvSQnls6Q9pfob0jN2jZeKf17jrJG7ZilcZNOqX2B+t13ZZHNdr5I3L4kI4s2qYL7soVj2tCmetvr75ZZWYGWljH11ere3+0xoi1L6lQ9Wrdm6sxyyZG+r/bJ4tixNqXVOg6ZK+RHTFsxSqNG/uhjizq0ijXcc16kbqTXH8l921/bD2/ffXNL5tjrLK3PKrRgaDaH/y5zkTqOtudn2P7TIpmmzj9JRn7mbZQY5aN0efrq3Vupqvf/K5ln9fJKlf9Yzp5o7s/zLZb+rpOFvOY/vtysvBy3r1ZdzxzjVloMzMB4mVhmPX8sxiymtdo3fFyT8aAJ3vCzEoJNWnzrPnqitSOismeMDMJ3BJl4pkZDL77Mc/PJaa+mfUQ22fRTIxa5brrJjjfxPo6pl3eXatVu27x9LE3EybJ6ySfaxVzzZM9pnz612z/YEh0TLPMZJxrTF942x/zWTVE+jYmE8dSvKlDM7PNz4bZxovrs0T3FrPMZH6nxNR3fQeY931TzHFHGvfVONmA5jH9742J9ZUhZWXiebPG4r7Hw/V7ZWadxbnmzn0p9nclSc49b/dhFc0x9h/nfmiei//nzvV7HXOfTMD3mHH2Vbpdy6vGq61mgrrmdmimvOVmO73bA7H3qj74nWfsvuzft5j7vZt9PjL7zLkHWPeNzjjtj/0sJHPMZOoYfK+Fj5Kz+ssT3VLC/yMAAK50ZOJdjW6eoR2zxujongrN21ihefuPKWP8I6557R7Sc0vtYN9Gq876w9KdszZoxSirxvZ6+717WtVrB+2cuvM29ndobYbunLVVZXKO+6reO52nsnk/1hRXrfxpW7Us652EdZKXr8Kdj+prR52ssXp1ByZqnCtjbNiKVZpQNlLH19tZZQ/Wqzsmq8wO0gTro9lnDx7QtQsXapirliQrI23ZGH1u7+/IwbCyy1Ype5pTwZqXqHDkIR1x9rX+kDTp0dhMtsBEjds5VeedttUHlTHpUc/8SNYDmlztf0xHuqfGzKE0Yu1LdlDTe8wBnR8p/JkroHafRu98VKNPRfvsyEFp9DJ3X0QfEOXO7Fv/mW4y+0IBjV5mB0njXEtVPK4JdoDRe8zYOaWyy17SuOwDdr2XdTycr8It3utpPaQGo3324GPqzF4Q237jmO3BfBXufFwjXNUkSUvPqUgZOnwg3n/OXQ8Hkb/u71N2pbHwg52t4c482Nvun8WQNXmlqucokkFhZSi4sjoa5mtdZB/Gm11yV7dqfIsri8DJXOlPFsaGUns/a3QwZBY6vNk30WyGNu2NGUZlP5RGzlFxMleKNLNxpYo+cPqtVsHMKVqc8jmkcMzCclVXjVebk4FhZ8KYc7T1dZ1yV7eq2n7YdI5pXfP+HDPJz9mA6uuY0evtl2nlzaKq0YJKaZer3MxWallil9U0qcfMuipJLeBg6av9qenr3nJmRfQ+3WsH7SL3xwe9wbRhK1Yp831X+fpD6nV9h11YWx29Z5pZ1A8+lnLgTUm0f0hqO6Eec1vSarRgTpF6mtdpn890oMXFRVLosFo8AZwalU4OSJHMtxqNL5R6Pnjb+0eFynLrjwWFE2Pu7wMld/p4Zdnta2lpS/pYXU/vU1BSfnGq99B4wur26b+4Su9RUaYUbIj9Q0xLS5urbwdB9i39+t1PqPE6HQ5JgXHntNgsAwBcNQjiXZWOqX5jNKtORz5QUFLOyMmSpCnfna58HVN9/a8i72j6/Ta9dzpDd377oci2wdB7+FXNixy3Wb871itdn6UCd6XTrVrfV50UdNe7H1LeVCgoaWSuHay5T6MmBdR78HVXptabOl4flPKnRh9IpuUqQ1L3++7stjd1PCYLTDGZXxfWHlC3AvraXVawbNiKqcpWUO3u9+7fpmMHw95j2rrrXVlkW99Xt6SMG6OBt2HZASn8ocKu7LYLa6u9mX/TFuqmfKm73pUdZh8zY1JZbLApRcNWLNDogNR79N3IOUXO05UReGHt6zoeDmj0TFfgreAGZSisz991PUju36YPfTIJvRmGb+rkwbCUf7vd/rHKnpovBes9D6XWMaXsqUbANXxIRyL7Oqrw0bAUuMFVZ6yuGykp+L4no+7MCiP7cuZEZYQP6ZjrmGdW1Ktb+brJCJA+P6FHCmXo7UbP5qjSW6y5lFrcQaoqvW5mGMydoqxQk3a5skValljDke42hw+FmrTZFQDpeuewehRQduxUSQl1PT3BG/homK/ftQ/ug6WX9ZAc3G1mgsxQvhHY63p6nQ6GApo0N/bBMrjbGnpnqdLh9tQfxlI7Zpv2lriyLzYcUlBS1uhUrpP1sN/TvMZzDaxr3o9jJvk5G1ADeszY97XsalKPAiqa3s/hc31Jpv2Lf6n6+vq4r19GnsqTu7ckK+Z+v3+bOoNy3RsH2sC2P20U5ShLUs/x1LPwijeVK9+4J0ctUm62pO6Po58V+w8x2m0N+80avSjyGXMf3xq2Ke3d3SYpR7lmwD5FuauXa1JmWAd3eTOZi28LRIOHGw4lGFIbR4r30Bil2zV3csAn0JlY7vTxyooX+LODsjH32otWpYbmsJQ5RYsbL2LIrq9r9PaRDCnzC6X4FQ0AuIIQxLsane5Rh2fDr/TUxgp7OO1k3Z2XIX3ygTE8tVnHQ5Iy/7GfGW/JOXHKPaRXavp9peYZQ2V7jzVbQ3AHRFjnvZ1hZTg4AbSK25VtBpAkqeMz9Sqga53I4f4u9drZW2ZGVwwjoCYFdT4sZWTnSxqrwNiAkbFmufDuh95jSpKCCvUxmfmF7rCVsWdkkbkNu2uMMnz2deHTU5JG6rp+ZE9kTHpUE3a+pAk7X4pkArqH1wbGBmIe8qSjOnfKHUSN9nVMhp4PbxDVaP+0u/S1gNTbHfTU8Q/QeQOO/uy2xmRlut2nzHy/fbmvueNL3XKDpM++qs2urR4NH6tHUv6cRKtpxsnWUJu6Q1JWjvFff/eDo6KZd6lnIsXqPBE2Nw0a5yG5wdNu6+FT7YeMYXVb1NXt92AZ+7DXsqRAq1IKJKV4zNAJdbp/tjPOYobrJbpOlROV7xtciBOE7OuYSX3OBthgH9Pe/6BJpv2bf6iysrK4rx9GfvGTubdcnAvdg/m7OdDtL9LMxg5Vu19+C08MptLtWj6nSGqvTf3eWLpddxf6Z4P5sbJqc/S7hPdhaw69xTn7YubyS01Ak6qi/WoNVzWGdJbeo6LMsNrece4v1ndJctl1Vt1+sYNgzvVW8xr/e3FhufezMeCBMx99HNOaf9EOwE5eadWJzId3cTZ3DpN0QbeUmCUAgKsFQTwY8pR1vT3kdulWzyvRHHhXqmE3jowM03QCUhN2vqQJnvnZZGXdPfiyldFV5tTrO+gU16muuAEkd5ZdMi6srbYWlghM1Din/caD1bDsgD202DhP9zyAKYoMyaoPWn3ozq5Tvq4N2A95xjFj5nnav00fPlivbs918BmKmqTeT+MNDUs9WHlmhTUc2n0enuHHdoamO6BpvdzzAKaiSq/bQ0zz5zgPD8ZwSTtbI/LgEHn1sRLeRavRAuOhxm+1wkFR2aCZhWEd3GA+4BUpO9P/gSvRfGgX53IcU74ByIjMHN1kbksoic/ZgBvYY+aubjX6P9F8egNhYNvf570lJdYUDe57UKI58AbCwLbfHDodHQY9mKLX0Qoi9ez2WWygT/ZiFkkG/4o3dWjxbYc9WbexrOH6RR+s6Ud7TMZiCjVNyjIWo7Cy2U6oKxLY26KWD8JS4YwkPt/2/bA/IgtbOMGwcv+sbp9FJrx/BEk9s7xPfR5TsVMAZE7R4ou4JwAA4CCIB8Mx9ZyW9El0PjzPy1mI4iphZXKFPfPJxZt3SDqq7kXueYqSyx5LVfwgVAJbfx5pc3swNkPCysrwzl8UfV3kEKitP7eP6R4KbGWiyTOHoOsVMwz5TR13yuqDdsCx/4E8f6d0rh/nGZ1PygriZrjnEbQzNM05piIvvyHBfXKtaldjDRH0zLVmZwR5V110vS76oc+PPR+YZzVBZ+6yweaaaypmmJWdBeLzwLWqJNUMu2RdjmP2ISbzLhl9fM4GxcAc0z0BfrTvrUDA4Oqj/UkPp7UkvLckzZ6vNeyaY9Wei3WwDUz7L5+LnyfRGZ5qztNpsrN0C8utBSPc9wj3ENpItme55Bn2L+WOzpE8gbZ+apivXc3uAJ2dWWxkQ1p/oElieLrT/pjM8FRU6fXd1vx1MdNB9KHr+AlzU9RFDI9OVdfTE6L3hJjpDQAASA1BPBhSHDZ78v/TCdd8esl5SLcPlaw+c9hssvZv04d2IK/P99rDPK2hoPbQTp+5iuINeU3VmRV2IM81ZDXlYbMPv6i6ujrVvbZSU80yH2f22kHNSDaez7DZZG39uR3I67u9I27Pjw5f3v+uPg9L2bebw7viDe1N1VF1L7IfViPDZP2GzcZzjT7+TNINXyQ/YXXDfK2zHwyimQZxhs0OJns4Z7LDxQZS4rmm4gxhvWhTtfK1OtXV1enFh82ywTpmAhsOKej7QB1vaHWKfD9nLineD5KS4JjWg3m8+b/soEPM0Oo47MBIavNiWf2akF/7kx5Oa/K7t9jsPxTEzdCuuF3ZkroPmH8Y8ZPK/SrK+m5KJEH7JWn6Sm2rq1Nd3YvqazaKocU/AOYMBXYy/RZUOossmHPROVlwbTq8QdHh8TGf7XhD+C+GHRB0FoYwAprOokNZt92T8D5XPHeKsuQeittPG2qt48XLxovHnu8zdujvIs0oLTL60ueeUpQTf069y2TxTRckDdPH8ebOBQBc8QjiIcb2P7aq9/oJWlaWzCIWVuZexvgZmm8WKRrky7/V2ddDem7pjEEe1jSA7AnAvavH+qh4PCbDwHqwiZ1zz2usshdaCx+ctINz1kIX+Sp0D3mdtlB5kwLqPVifYqBprLK3mBlr1jxtniG7W+utBSWWmXX9VYy3I5OBr2vadLPUR2Qi9Wg23pm9h9Rrrh7rY9iKVTHzDI64Pb/vzLmKx1WY7354ParuA0Epv8xYvXeBRgfCOr431ay4+zTanGcwZt696DHNz4efJ1uzpMxe3RNvrpvKhpi5fmIn7t6ifQ1tUmF5TN1BY08Q7n5QKt50CYbTxh1GG9Wyq0k9/VphNoHp0/R1+9QKxseGHQblmAlZE6lnTV7uyVor3lSufLXpd74BzgSS+pxFTb0xx/pH4Jv6fkxQM0mpHLPtRIKMFjuImjlexU5f2IsE+H/v2EHveMEBJ/sp8tm2s06Naim1v0/J3FscduAt3gJEHZ9Z87W6/nhhrUTu97vpzGUXu4CSw5pjdYwCdrm1+rm5r1TaL02d/HUNlyQV6Bv9/fykJVdmpvtlrIj8+gYnSBXQJPdqxpUNdkZpdGitc2+Z6/qsFW9amUS2X5KcBSTsgKA3iOhmD6l1/54ZijdZUwj4Z0mnyv5eSzkbz15kwvg+tDIko394slbRNe8pVpa32vel1v7S7Vruc+93AppmoDY1X+qecb1S6KtK+bYCALhifCUvL+/v5kZHQUGBOjs7de7cObPoskrXdinN2yZN1op5j+hOtWp9n8Ni/YNtwf0VeuqIsdGnrqfeqB9ry6wJkb/UB/dXaO/IDVqW92G0HeOe1Y5peXH277COk3P4VXsRDsuU727QsvEnVW8sgNEX6+FDnpVi4/F9UAkf0hHXsM/YOkG1P+ha7dV+eIqZ882zoqrDHgLl2tJd7x2+ax3vlHEM630ZB192LSIRu69eT3lU0u17+EXVzSyQwn/WLx5eowOeQr82WIHIMcsmKsOzv9i2yedcY9pl9H1k364q5irAERWPG3P9mdfJv/2+/e1zXLPtkn89//ad11tvdCnn3Zt1xzPXuAsinKGCUW3a6zd/Uul2LY+Z/D2sgzXOpOV2MKK9NuEQ29jjRfU0r4kO6apsUPWcaMpUT/Ma7dJyLZ58Ito+3zbZQk3abA8jcx7+/AR3O8Pa4gRTJJ8+8a8b3ZdznnL1TyJTtfK1H+mbAalj72z95DWzXEkcc5Fm7FmpSYqet7/krpP8rpWrTy3JHtNnXzF96lahF+u+pwIl6o++pXRM4/PmrWufZ2QurjbtLTmk8Y3lynJ/ZiNir5X7s2F+boO7C9QwutWau8zVjym1vy8+9wzfe4vkex/11DXueb0HX9YxLYi9n0n2H368c3aa3xee+3H4kI4s6tKonWWS+5iptH/6Sm374Tc1XB367eyfyF3F6lPXPcRhXxP5XM+47/Gwrrnv58Hed4/7MzCQ4u7f/Nwan0NHzH20n5+zmN8hS8w9qjvOvcd1Dax7vfE9EXP/SV7xpg7NzDbf7/SPc76xv7cR5v0y5lzd34WO2P15vuPi1IlwHzPmeH30R2WDqufk+LTJUHJWf3miWyd+nad7N5qFAICrBUG8AZbObcPlN2LtSyocaQSgcPHsB8beeA+JQ8jiZ05q5V1S0wujNI/hMhgiKn5Wp+/ln9Wff7lQa94xSwHgckv+jxjp6vlXjqn8hmytKR8efxV7AMAVj+G0AJBGNj8TUJt6NWXJ2eTnxgMup4df1PfypbN/2kwAD0CasofkZk5RaaW9qXS7lu9xDWFOZ0tDKr9VavtXAngAcLUjiAcAaeVa3ftCtsKZ3Vr5ynmzEEgjFXqxrk51MwvUsXe2FtZ4B9YDQFrZUKrNzeHIoiLVVVPUcxkWZEpZyVn95YEehd+9mWG0AACG0w60dG4bLj+G0w6SK2g4bcTSkIIPSLX3Z+pJswwAcJkkmBfNLdEcaIMkdl5Gf75z7Q2q9O2zoeD5V46pXLnK/8G1ZhEA4CpEEG+ApXPbAAAAAAAAMDQxnBYAAAAAAABIcwTxAAAAAAAAgDSXcDgtAAAAAAAAgMuPTDwAAAAAAAAgzRHEAwAAAAAAANIcQTwAAAAAAAAgzRHEAwAAAAAAANIcQTwAAAAAAAAgzRHEAwAAAAAAANLc/w/RBSbCRfx8bwAAAABJRU5ErkJggg==;" parent="1" vertex="1">
          <mxGeometry x="-210.1999969482422" y="527.5999755859375" width="1265" height="678" as="geometry" />
        </mxCell>
        <mxCell id="WB3ADnF7xE-O0mQ4oyNu-2" value="" style="endArrow=classic;html=1;rounded=0;strokeColor=#FF0000;" parent="1" edge="1">
          <mxGeometry width="50" height="50" relative="1" as="geometry">
            <mxPoint x="697" y="624" as="sourcePoint" />
            <mxPoint x="508" y="592" as="targetPoint" />
          </mxGeometry>
        </mxCell>
        <mxCell id="WB3ADnF7xE-O0mQ4oyNu-3" value="Authentication class used for checking if a user has permission to access this view. In this case, only admin is allowed to access this endpoint." style="text;html=1;align=center;verticalAlign=middle;whiteSpace=wrap;rounded=0;fontSize=18;" parent="1" vertex="1">
          <mxGeometry x="687" y="582" width="212" height="57" as="geometry" />
        </mxCell>
        <mxCell id="WB3ADnF7xE-O0mQ4oyNu-4" value="" style="endArrow=classic;html=1;rounded=0;strokeColor=#FF0000;" parent="1" edge="1">
          <mxGeometry width="50" height="50" relative="1" as="geometry">
            <mxPoint x="734" y="706" as="sourcePoint" />
            <mxPoint x="355" y="634" as="targetPoint" />
          </mxGeometry>
        </mxCell>
        <mxCell id="WB3ADnF7xE-O0mQ4oyNu-5" value="Permission class that determines whether a user has the right to perform a specific action on a resource. Here, the get method doesn&#39;t require authentication but the post method can only be accessed when the user is authenticated using an access token" style="text;html=1;align=center;verticalAlign=middle;whiteSpace=wrap;rounded=0;fontSize=18;" parent="1" vertex="1">
          <mxGeometry x="731" y="699" width="277" height="164" as="geometry" />
        </mxCell>
        <mxCell id="WB3ADnF7xE-O0mQ4oyNu-6" value="" style="labelPosition=right;align=left;strokeWidth=1;shape=mxgraph.mockup.markup.curlyBrace;html=1;shadow=0;dashed=0;strokeColor=#FF0000;direction=north;flipH=1;" parent="1" vertex="1">
          <mxGeometry x="427" y="658" width="20" height="263" as="geometry" />
        </mxCell>
        <mxCell id="WB3ADnF7xE-O0mQ4oyNu-7" value="Code that is executed when an HTTP get request is made. This code returns all entries in the SpecializationAvailable model." style="text;html=1;align=center;verticalAlign=middle;whiteSpace=wrap;rounded=0;fontSize=18;" parent="1" vertex="1">
          <mxGeometry x="463" y="770" width="233" height="57" as="geometry" />
        </mxCell>
        <mxCell id="9WlQ1sY2MJw9gSTuL7OJ-1" value="" style="labelPosition=right;align=left;strokeWidth=1;shape=mxgraph.mockup.markup.curlyBrace;html=1;shadow=0;dashed=0;strokeColor=#FF0000;direction=north;flipH=1;" vertex="1" parent="1">
          <mxGeometry x="700" y="953" width="20" height="252.6" as="geometry" />
        </mxCell>
        <mxCell id="9WlQ1sY2MJw9gSTuL7OJ-2" value="Code that is executed when an HTTP post request in made. This code makes a new entry into the SpecializationAvailable table using the appropriate serializer to convert the JSON data into the required format." style="text;html=1;align=center;verticalAlign=middle;whiteSpace=wrap;rounded=0;fontSize=18;" vertex="1" parent="1">
          <mxGeometry x="736" y="1054.6" width="256" height="57" as="geometry" />
        </mxCell>
        <mxCell id="9WlQ1sY2MJw9gSTuL7OJ-3" value="" style="endArrow=classic;html=1;rounded=0;strokeColor=#FF0000;" edge="1" parent="1">
          <mxGeometry width="50" height="50" relative="1" as="geometry">
            <mxPoint x="500" y="963" as="sourcePoint" />
            <mxPoint x="416" y="1017" as="targetPoint" />
          </mxGeometry>
        </mxCell>
        <mxCell id="9WlQ1sY2MJw9gSTuL7OJ-4" value="Passes the request data into the serializer to make a new object of the model SpecializationAvailable" style="text;html=1;align=center;verticalAlign=middle;whiteSpace=wrap;rounded=0;fontSize=18;" vertex="1" parent="1">
          <mxGeometry x="497" y="929" width="181" height="57" as="geometry" />
        </mxCell>
      </root>
    </mxGraphModel>
  </diagram>
</mxfile>
